<svg id="Capa_1" data-name="Capa 1" xmlns="http://www.w3.org/2000/svg" viewBox="0 0 439.022 434.23">
  <defs>
    <style>
      .cls-1 {
        fill: #272559;
      }
    </style>
  </defs>
  <title>ac</title>
  <g>
    <path class="cls-1" d="M398.192,606.436a8,8,0,0,1-8-8V198.154a8,8,0,1,1,16,0V598.436A8,8,0,0,1,398.192,606.436Z" transform="translate(-175.989 -179.385)"/>
    <path class="cls-1" d="M571.7,506.516a7.963,7.963,0,0,1-3.993-1.073L220.677,305a8,8,0,1,1,8-13.855L575.708,491.587a8,8,0,0,1-4.009,14.929Z" transform="translate(-175.989 -179.385)"/>
    <path class="cls-1" d="M224.686,506.516a8,8,0,0,1-4.009-14.929L567.706,291.147a8,8,0,1,1,8,13.855L228.679,505.442A7.963,7.963,0,0,1,224.686,506.516Z" transform="translate(-175.989 -179.385)"/>
    <path class="cls-1" d="M607.012,353.943a8.005,8.005,0,0,1-2.3-.337l-77.848-23.292a8,8,0,0,1-5.532-9.33l16.818-79.022a8,8,0,0,1,15.65,3.331L538.521,317.1l70.78,21.178a8,8,0,0,1-2.29,15.666Z" transform="translate(-175.989 -179.385)"/>
    <path class="cls-1" d="M550.172,386.851a8,8,0,0,1-2.212-.312l-79.021-22.692a8,8,0,0,1-5.556-9.619l19.786-79.622a8,8,0,1,1,15.527,3.858L480.772,350.6l71.6,20.563a8,8,0,0,1-2.2,15.691Z" transform="translate(-175.989 -179.385)"/>
    <path class="cls-1" d="M550.163,560.965a8,8,0,0,1-7.727-5.946L521.43,476a8,8,0,0,1,5.438-9.72l77.848-23.292a8,8,0,1,1,4.586,15.328l-70.416,21.069L557.9,550.907a8.007,8.007,0,0,1-7.736,10.058Z" transform="translate(-175.989 -179.385)"/>
    <path class="cls-1" d="M490.928,528.057a8,8,0,0,1-7.758-6.072l-19.786-79.622a8,8,0,0,1,5.556-9.619l79.021-22.692a8,8,0,0,1,4.416,15.379l-71.6,20.563L498.7,518.125a8.007,8.007,0,0,1-7.77,9.932Z" transform="translate(-175.989 -179.385)"/>
    <path class="cls-1" d="M457.426,613.615a7.972,7.972,0,0,1-5.549-2.238l-53.685-51.713-53.685,51.713a8,8,0,0,1-11.1-11.523l59.234-57.06a8,8,0,0,1,11.1,0l59.234,57.06a8,8,0,0,1-5.551,13.762Z" transform="translate(-175.989 -179.385)"/>
    <path class="cls-1" d="M457.426,547.8a7.971,7.971,0,0,1-5.565-2.255l-53.668-52-53.668,52a8,8,0,1,1-11.133-11.49l59.234-57.393a8,8,0,0,1,11.133,0l59.234,57.393a8,8,0,0,1-5.567,13.745Z" transform="translate(-175.989 -179.385)"/>
    <path class="cls-1" d="M248.021,560.965a8.008,8.008,0,0,1-7.826-9.7l15.3-70.593-68.608-22.422a8,8,0,0,1,4.971-15.209l75.472,24.665a8,8,0,0,1,5.333,9.3l-16.835,77.649A8,8,0,0,1,248.021,560.965Z" transform="translate(-175.989 -179.385)"/>
    <path class="cls-1" d="M305.459,528.057a8.009,8.009,0,0,1-7.784-9.874l17.288-71.815-71.01-20.954a8,8,0,0,1,4.529-15.346l78.3,23.106a8,8,0,0,1,5.513,9.545l-19.068,79.208A8,8,0,0,1,305.459,528.057Z" transform="translate(-175.989 -179.385)"/>
    <path class="cls-1" d="M183.985,353.943a8,8,0,0,1-1.944-15.761l78.012-19.6L238.547,245.9a8,8,0,1,1,15.342-4.54l23.872,80.677a8,8,0,0,1-5.721,10.029l-86.1,21.637A8.014,8.014,0,0,1,183.985,353.943Z" transform="translate(-175.989 -179.385)"/>
    <path class="cls-1" d="M246.212,386.851a8,8,0,0,1-1.924-15.766l74.666-18.557-21.191-73.785a8,8,0,0,1,15.379-4.417l23.48,81.756a8,8,0,0,1-5.76,9.972l-82.715,20.558A8.009,8.009,0,0,1,246.212,386.851Z" transform="translate(-175.989 -179.385)"/>
    <path class="cls-1" d="M398.192,254.6a7.978,7.978,0,0,1-5.516-2.205l-62.226-59.22a8,8,0,0,1,11.031-11.59l56.663,53.926L452.7,182.7a8,8,0,0,1,11.129,11.5l-60.075,58.153A7.981,7.981,0,0,1,398.192,254.6Z" transform="translate(-175.989 -179.385)"/>
    <path class="cls-1" d="M396.7,316.084a7.986,7.986,0,0,1-5.313-2.019l-57.738-51.294a8,8,0,0,1,10.627-11.962L396.828,297.5l55.437-46.822A8,8,0,0,1,462.589,262.9L401.858,314.2A7.983,7.983,0,0,1,396.7,316.084Z" transform="translate(-175.989 -179.385)"/>
  </g>
</svg>
