<svg id="Capa_1" data-name="Capa 1" xmlns="http://www.w3.org/2000/svg" viewBox="0 0 619.062 500.903">
  <defs>
    <style>
      .cls-1 {
        fill: #272459;
      }

      .cls-2 {
        fill: #fff;
      }
    </style>
  </defs>
  <title>alberca</title>
  <g>
    <g>
      <path class="cls-1" d="M472.061,617.331a56.672,56.672,0,0,1,34.088,11.308,82.3,82.3,0,0,0,98.61,0,58.039,58.039,0,0,1,34.394-11.306,56.672,56.672,0,0,1,34.088,11.308,13.252,13.252,0,0,0,7.636,2.451,11.993,11.993,0,0,0,9.915-5.13l.109-.145c4.258-5.24,3.183-12.933-2.44-17.537a82.3,82.3,0,0,0-98.564.037A58.039,58.039,0,0,1,555.5,619.622a56.672,56.672,0,0,1-34.088-11.308,82.3,82.3,0,0,0-98.61,0,58.038,58.038,0,0,1-34.394,11.306,56.674,56.674,0,0,1-34.088-11.308,82.3,82.3,0,0,0-98.61,0,58.037,58.037,0,0,1-34.394,11.306,56.674,56.674,0,0,1-34.088-11.308,82.3,82.3,0,0,0-98.61,0A12.589,12.589,0,0,0,103.536,628.6a57.981,57.981,0,0,1,34.341-11.269,56.671,56.671,0,0,1,34.088,11.308,82.3,82.3,0,0,0,98.61,0,58.037,58.037,0,0,1,34.394-11.306,56.672,56.672,0,0,1,34.088,11.308,82.716,82.716,0,0,0,98.629-.016A58.02,58.02,0,0,1,472.061,617.331Z" transform="translate(-79.023 -148.64)"/>
      <path class="cls-2" d="M555.452,649.543a86.583,86.583,0,0,1-51.988-17.292,52.2,52.2,0,0,0-31.4-10.42,53.555,53.555,0,0,0-31.725,10.429,87.215,87.215,0,0,1-103.933.015,52.238,52.238,0,0,0-31.435-10.443,53.59,53.59,0,0,0-31.743,10.442,86.8,86.8,0,0,1-103.945-.022,52.21,52.21,0,0,0-31.4-10.42,53.482,53.482,0,0,0-31.69,10.4,17.328,17.328,0,0,1-23.856-3.573l-.077-.106a17.222,17.222,0,0,1,3.668-23.84,86.8,86.8,0,0,1,103.994-.014,52.211,52.211,0,0,0,31.4,10.42,53.588,53.588,0,0,0,31.743-10.442,86.8,86.8,0,0,1,103.945.022,52.211,52.211,0,0,0,31.4,10.42,53.591,53.591,0,0,0,31.742-10.442A86.8,86.8,0,0,1,524.1,604.7a52.2,52.2,0,0,0,31.4,10.421,53.59,53.59,0,0,0,31.742-10.442,86.8,86.8,0,0,1,103.9-.014l.169.132c7.537,6.17,8.909,16.594,3.146,23.775l-.024.034a16.443,16.443,0,0,1-13.557,6.983,17.675,17.675,0,0,1-10.229-3.273l-.094-.068a52.2,52.2,0,0,0-31.4-10.418,53.593,53.593,0,0,0-31.743,10.442A86.56,86.56,0,0,1,555.452,649.543Zm-83.391-36.712a61.134,61.134,0,0,1,36.774,12.2,77.8,77.8,0,0,0,93.238,0,62.563,62.563,0,0,1,37.079-12.2,61.134,61.134,0,0,1,36.724,12.161,8.717,8.717,0,0,0,5,1.6,7.45,7.45,0,0,0,6.24-3.227l.292-.387c2.647-3.259,1.888-8.14-1.722-11.153a77.8,77.8,0,0,0-93.105.1A62.567,62.567,0,0,1,555.5,624.122a61.141,61.141,0,0,1-36.775-12.2,77.8,77.8,0,0,0-93.238,0,62.562,62.562,0,0,1-37.078,12.2,61.143,61.143,0,0,1-36.776-12.2,77.8,77.8,0,0,0-93.237,0,62.559,62.559,0,0,1-37.079,12.2,61.143,61.143,0,0,1-36.776-12.2,77.8,77.8,0,0,0-93.237,0,8.262,8.262,0,0,0-1.738,11.385,8.332,8.332,0,0,0,11.372,1.612,62.366,62.366,0,0,1,36.937-12.093,61.141,61.141,0,0,1,36.776,12.2,77.8,77.8,0,0,0,93.237,0,62.564,62.564,0,0,1,37.079-12.2,61.139,61.139,0,0,1,36.775,12.2,78.218,78.218,0,0,0,93.289-.041A62.5,62.5,0,0,1,472.062,612.831Z" transform="translate(-79.023 -148.64)"/>
    </g>
    <g>
      <path class="cls-1" d="M104.263,454.48a12.505,12.505,0,0,0,0,25.01h204.23V454.48Z" transform="translate(-79.023 -148.64)"/>
      <path class="cls-2" d="M312.993,483.99H104.263a17.005,17.005,0,0,1,0-34.011H312.993ZM104.263,458.979a8.005,8.005,0,0,0,0,16.011H303.993V458.979Z" transform="translate(-79.023 -148.64)"/>
    </g>
    <g>
      <path class="cls-1" d="M595.5,479.49H681.08a12.519,12.519,0,0,0,12.505-12.505A12.673,12.673,0,0,0,681.08,454.48H595.5Z" transform="translate(-79.023 -148.64)"/>
      <path class="cls-2" d="M681.079,483.99H591V449.979h90.081a17.234,17.234,0,0,1,17.006,17.006A17.024,17.024,0,0,1,681.079,483.99Zm-81.081-9h81.081a8.015,8.015,0,0,0,8.006-8,8.216,8.216,0,0,0-8.006-8.006H600Z" transform="translate(-79.023 -148.64)"/>
    </g>
    <g>
      <path class="cls-1" d="M472.061,555.339a56.672,56.672,0,0,1,34.088,11.308,82.3,82.3,0,0,0,98.61,0,58.039,58.039,0,0,1,34.394-11.306,56.672,56.672,0,0,1,34.088,11.308,13.252,13.252,0,0,0,7.636,2.451,11.993,11.993,0,0,0,9.915-5.13l.109-.145c4.258-5.24,3.183-12.933-2.44-17.537a82.3,82.3,0,0,0-98.564.037A58.039,58.039,0,0,1,555.5,557.63a56.672,56.672,0,0,1-34.088-11.308,82.3,82.3,0,0,0-98.61,0,58.038,58.038,0,0,1-34.394,11.306,56.674,56.674,0,0,1-34.088-11.308,82.3,82.3,0,0,0-98.61,0A58.037,58.037,0,0,1,221.32,557.63a56.674,56.674,0,0,1-34.088-11.308,82.3,82.3,0,0,0-98.61,0,12.589,12.589,0,0,0,14.914,20.284,57.981,57.981,0,0,1,34.341-11.269,56.671,56.671,0,0,1,34.088,11.308,82.3,82.3,0,0,0,98.61,0,58.037,58.037,0,0,1,34.394-11.306,56.672,56.672,0,0,1,34.088,11.308,82.716,82.716,0,0,0,98.629-.016A58.02,58.02,0,0,1,472.061,555.339Z" transform="translate(-79.023 -148.64)"/>
      <path class="cls-2" d="M555.452,587.55a86.58,86.58,0,0,1-51.988-17.291,52.2,52.2,0,0,0-31.4-10.42,53.555,53.555,0,0,0-31.725,10.429,87.215,87.215,0,0,1-103.933.015,52.238,52.238,0,0,0-31.435-10.443,53.59,53.59,0,0,0-31.743,10.442,86.8,86.8,0,0,1-103.945-.022,52.21,52.21,0,0,0-31.4-10.42,53.482,53.482,0,0,0-31.69,10.4,17.327,17.327,0,0,1-23.856-3.574l-.077-.105a17.222,17.222,0,0,1,3.668-23.84,86.8,86.8,0,0,1,103.994-.014,52.211,52.211,0,0,0,31.4,10.42,53.588,53.588,0,0,0,31.743-10.442,86.8,86.8,0,0,1,103.945.022,52.211,52.211,0,0,0,31.4,10.42,53.591,53.591,0,0,0,31.742-10.442,86.8,86.8,0,0,1,103.946.021,52.2,52.2,0,0,0,31.4,10.421,53.59,53.59,0,0,0,31.742-10.442,86.8,86.8,0,0,1,103.9-.015l.169.132c7.539,6.173,8.908,16.6,3.141,23.783l-.024.033a16.44,16.44,0,0,1-13.552,6.978,17.675,17.675,0,0,1-10.229-3.273l-.094-.068a52.2,52.2,0,0,0-31.4-10.418,53.593,53.593,0,0,0-31.743,10.442A86.555,86.555,0,0,1,555.452,587.55Zm-83.391-36.711a61.134,61.134,0,0,1,36.774,12.2,77.8,77.8,0,0,0,93.238,0,62.563,62.563,0,0,1,37.079-12.2A61.134,61.134,0,0,1,675.877,563a8.717,8.717,0,0,0,5,1.6,7.45,7.45,0,0,0,6.24-3.227l.292-.387c2.647-3.259,1.887-8.141-1.723-11.154a77.8,77.8,0,0,0-93.1.1A62.567,62.567,0,0,1,555.5,562.13a61.141,61.141,0,0,1-36.775-12.2,77.8,77.8,0,0,0-93.238,0,62.562,62.562,0,0,1-37.078,12.2,61.143,61.143,0,0,1-36.776-12.2,77.8,77.8,0,0,0-93.237,0,62.559,62.559,0,0,1-37.079,12.2,61.143,61.143,0,0,1-36.776-12.2,77.8,77.8,0,0,0-93.237,0,8.261,8.261,0,0,0-1.738,11.385,8.331,8.331,0,0,0,11.371,1.612,62.366,62.366,0,0,1,36.937-12.093,61.141,61.141,0,0,1,36.776,12.2,77.8,77.8,0,0,0,93.237,0,62.564,62.564,0,0,1,37.079-12.2,61.139,61.139,0,0,1,36.775,12.2A78.218,78.218,0,0,0,435.033,563,62.5,62.5,0,0,1,472.062,550.839Z" transform="translate(-79.023 -148.64)"/>
    </g>
    <g>
      <path class="cls-1" d="M531.863,508.107c4.1,2.349,7.887,5,11.564,7.573l.114.084a18.478,18.478,0,0,0,13.331,3.918V229.28a75.784,75.784,0,0,0-46.419-70.2,76.345,76.345,0,0,0-59.049.008,75.834,75.834,0,0,0-46.4,70.2,12.519,12.519,0,0,0,12.505,12.505,12.672,12.672,0,0,0,12.5-12.505A52.61,52.61,0,0,1,433.9,209.4a46.086,46.086,0,0,1,10.9-16.137,50.228,50.228,0,0,1,15.988-10.788,52.427,52.427,0,0,1,19.891-3.912,50.1,50.1,0,0,1,19.583,3.912,45.958,45.958,0,0,1,16.077,10.878,50.248,50.248,0,0,1,10.788,15.986,51.031,51.031,0,0,1,3.911,19.943v63.856H371.306V229.28a75.783,75.783,0,0,0-46.419-70.2,76.345,76.345,0,0,0-59.049.008,75.831,75.831,0,0,0-46.4,70.2,12.519,12.519,0,0,0,12.505,12.505,12.673,12.673,0,0,0,12.5-12.505,52.612,52.612,0,0,1,3.887-19.882,46.073,46.073,0,0,1,10.9-16.137,50.221,50.221,0,0,1,15.986-10.788,52.432,52.432,0,0,1,19.892-3.912,50.1,50.1,0,0,1,19.583,3.912,45.97,45.97,0,0,1,16.076,10.878,50.238,50.238,0,0,1,10.788,15.987,51.026,51.026,0,0,1,3.912,19.942V499.165a116.2,116.2,0,0,1,25.01,12.729v-32.4H531.863Zm0-53.627H371.306V399.023H531.863Zm0-80.467H371.306V318.556H531.863Z" transform="translate(-79.023 -148.64)"/>
      <path class="cls-2" d="M555.021,524.27a22.873,22.873,0,0,1-14.2-4.922c-3.614-2.527-7.3-5.105-11.2-7.337l-2.263-1.3V483.99H374.986v36.349l-7.01-4.71a111.871,111.871,0,0,0-24.042-12.236l-2.958-1.079V229.279a46.49,46.49,0,0,0-3.548-18.169,45.812,45.812,0,0,0-9.838-14.581l-.139-.146a41.539,41.539,0,0,0-14.524-9.774,45.543,45.543,0,0,0-17.811-3.549,47.941,47.941,0,0,0-18.172,3.57,45.732,45.732,0,0,0-14.527,9.815l-.146.139a41.677,41.677,0,0,0-9.779,14.533,48.189,48.189,0,0,0-3.545,18.161,17.233,17.233,0,0,1-17,17.006,17.025,17.025,0,0,1-17.005-17.006,80.332,80.332,0,0,1,80.435-80.64,80.515,80.515,0,0,1,31.277,6.295,80.335,80.335,0,0,1,49.157,74.345v59.356H526.542V229.279A46.512,46.512,0,0,0,523,211.109a45.834,45.834,0,0,0-9.838-14.58l-.139-.146a41.539,41.539,0,0,0-14.525-9.774,45.545,45.545,0,0,0-17.811-3.549,47.93,47.93,0,0,0-18.171,3.57,45.714,45.714,0,0,0-14.529,9.815l-.145.138a41.694,41.694,0,0,0-9.778,14.535,48.18,48.18,0,0,0-3.546,18.16,17.233,17.233,0,0,1-17,17.006,17.024,17.024,0,0,1-17-17.006,80.332,80.332,0,0,1,80.435-80.64,80.518,80.518,0,0,1,31.276,6.295,80.337,80.337,0,0,1,49.157,74.345v294.5l-4.08.383C556.534,524.233,555.77,524.27,555.021,524.27Zm-18.657-18.727c3.381,2.068,6.53,4.271,9.595,6.415l.249.18a14.7,14.7,0,0,0,6.166,2.877V229.279A71.288,71.288,0,0,0,508.66,163.2a71.85,71.85,0,0,0-55.493.022A71.33,71.33,0,0,0,409.5,229.279a8.015,8.015,0,0,0,8,8.006,8.215,8.215,0,0,0,8-8.006,57.025,57.025,0,0,1,4.21-21.554l.041-.1A50.676,50.676,0,0,1,441.7,190.006a54.619,54.619,0,0,1,17.323-11.669,57.061,57.061,0,0,1,21.664-4.276,54.622,54.622,0,0,1,21.355,4.276A50.485,50.485,0,0,1,519.6,190.242a54.678,54.678,0,0,1,11.668,17.321,55.572,55.572,0,0,1,4.275,21.716v68.356H366.807V229.279A71.283,71.283,0,0,0,323.093,163.2a71.847,71.847,0,0,0-55.492.022,71.327,71.327,0,0,0-43.663,66.055,8.015,8.015,0,0,0,8.005,8.006,8.215,8.215,0,0,0,8-8.006,57.03,57.03,0,0,1,4.208-21.553l.042-.1A50.67,50.67,0,0,1,256.13,190a54.646,54.646,0,0,1,17.321-11.668,57.073,57.073,0,0,1,21.665-4.276,54.619,54.619,0,0,1,21.356,4.276,50.47,50.47,0,0,1,17.558,11.905,54.646,54.646,0,0,1,11.67,17.323,55.556,55.556,0,0,1,4.275,21.714V496.061a120.819,120.819,0,0,1,16.01,7.729v-28.8H536.363Zm0-46.563H366.807V394.523H536.363Zm-160.557-9H527.363V403.523H375.807Zm160.557-71.467H366.807V314.057H536.363Zm-160.557-9H527.363V323.057H375.807Z" transform="translate(-79.023 -148.64)"/>
    </g>
  </g>
</svg>
