<svg id="Capa_1" data-name="Capa 1" xmlns="http://www.w3.org/2000/svg" viewBox="0 0 567.68 500.005">
  <defs>
    <style>
      .cls-1 {
        fill: #272559;
      }
    </style>
  </defs>
  <title>amueblado</title>
  <g>
    <path class="cls-1" d="M675.84,608.4H124.16a8,8,0,0,1-8-8V447.824a8,8,0,0,1,8-8H675.84a8,8,0,0,1,8,8V600.4A8,8,0,0,1,675.84,608.4Zm-543.68-16H667.84V455.824H132.16Z" transform="translate(-116.16 -146.54)"/>
    <path class="cls-1" d="M649.97,646.545H151.652a20.912,20.912,0,0,1-20.889-20.889V600.4a8,8,0,0,1,8-8h524.1a8,8,0,0,1,8,8v25.255A20.913,20.913,0,0,1,649.97,646.545ZM146.764,608.4v17.255a4.895,4.895,0,0,0,4.889,4.889H649.97a4.895,4.895,0,0,0,4.89-4.889V608.4Z" transform="translate(-116.16 -146.54)"/>
    <path class="cls-1" d="M400,608.4a8,8,0,0,1-8-8V447.824a8,8,0,1,1,16,0V600.4A8,8,0,0,1,400,608.4Z" transform="translate(-116.16 -146.54)"/>
  </g>
  <path class="cls-1" d="M439.192,480.728a9.641,9.641,0,1,1-7.87-7.87A9.648,9.648,0,0,1,439.192,480.728Z" transform="translate(-116.16 -146.54)"/>
  <path class="cls-1" d="M375.969,480.728a9.641,9.641,0,1,1-7.87-7.87A9.648,9.648,0,0,1,375.969,480.728Z" transform="translate(-116.16 -146.54)"/>
  <path class="cls-1" d="M257.628,453.269a8,8,0,0,1-8-8v-74.91a8,8,0,0,1,16,0v74.91A8,8,0,0,1,257.628,453.269Z" transform="translate(-116.16 -146.54)"/>
  <path class="cls-1" d="M314.069,377.046H201.187a20.833,20.833,0,0,1-20.343-25.321l21.181-96a20.962,20.962,0,0,1,20.343-16.344h70.521a20.963,20.963,0,0,1,20.343,16.343l21.182,96a20.833,20.833,0,0,1-20.344,25.32Zm-91.7-121.665a4.861,4.861,0,0,0-4.718,3.79l-21.181,96a4.831,4.831,0,0,0,4.718,5.873H314.069a4.831,4.831,0,0,0,4.719-5.873l-21.181-96a4.862,4.862,0,0,0-4.719-3.791Z" transform="translate(-116.16 -146.54)"/>
  <path class="cls-1" d="M532.822,369.719c-41.749,0-77.02-45.105-77.02-98.5,0-24.727,7.941-49.627,21.787-68.317,14.8-19.984,34.42-30.99,55.232-30.99s40.428,11.006,55.233,30.99c13.846,18.69,21.787,43.591,21.787,68.317C609.843,324.613,574.571,369.719,532.822,369.719Zm0-181.8c-32.506,0-61.02,38.929-61.02,83.308,0,21.3,6.785,42.572,18.616,58.351,11.676,15.57,26.734,24.146,42.4,24.146s30.729-8.575,42.4-24.146c11.831-15.778,18.616-37.046,18.616-58.351C593.843,226.844,565.328,187.915,532.822,187.915Z" transform="translate(-116.16 -146.54)"/>
  <path class="cls-1" d="M532.822,395.906c-55.787,0-101.174-55.933-101.174-124.684S477.035,146.54,532.822,146.54,634,202.473,634,271.223,588.61,395.906,532.822,395.906Zm0-233.366c-46.965,0-85.174,48.755-85.174,108.683s38.209,108.684,85.174,108.684S618,331.151,618,271.223,579.788,162.54,532.822,162.54Z" transform="translate(-116.16 -146.54)"/>
</svg>
