<svg id="Capa_1" data-name="Capa 1" xmlns="http://www.w3.org/2000/svg" viewBox="0 0 663.588 479.333">
  <defs>
    <style>
      .cls-1 {
        fill: #272559;
      }
    </style>
  </defs>
  <title>bano</title>
  <g>
    <path class="cls-1" d="M707.327,323.507H93.673a20.991,20.991,0,0,0-20.967,20.967v12.7a20.991,20.991,0,0,0,20.967,20.967h6.315c.341,45.678,6.572,85.273,18.568,117.7,9.959,26.918,23.881,49.024,41.38,65.7,24.819,23.656,49.507,29.577,58.081,30.979.086,8.976,1.381,31.231,11.664,41.937a19.707,19.707,0,0,0,28.694,0c10.14-10.546,11.565-32.3,11.695-41.524l252.241.009c.123,9.233,1.533,30.972,11.659,41.514a19.707,19.707,0,0,0,28.694,0c10.718-11.148,11.7-34.822,11.707-42.98,10.654-3.162,35.582-12.529,60.438-36.125,18.81-17.855,33.629-40.192,44.045-66.39,12.546-31.553,18.676-68.831,18.273-110.829h10.2a20.991,20.991,0,0,0,20.967-20.967v-12.7A20.991,20.991,0,0,0,707.327,323.507ZM252.461,628.773a11.5,11.5,0,0,1-16.856.007c-7.452-7.751-9.246-25.9-9.387-35.833h35.661C261.736,602.871,259.933,621,252.461,628.773Zm304.29,0a11.5,11.5,0,0,1-16.856.007c-7.452-7.751-9.246-25.9-9.387-35.833h35.661C566.025,602.871,564.222,621,556.751,628.773ZM671.358,485.615c-9.917,25.059-24,46.41-41.85,63.459-24.07,22.987-50.637,33.312-61.7,35.667H221.665c-2.123-.214-29.081-3.417-56.066-29.139-16.588-15.81-29.825-36.875-39.346-62.609-11.65-31.49-17.726-70.062-18.076-114.7H688.945C689.329,419.05,683.418,455.139,671.358,485.615Zm48.73-128.444a12.775,12.775,0,0,1-12.761,12.761H93.673A12.775,12.775,0,0,1,80.913,357.17v-12.7a12.776,12.776,0,0,1,12.761-12.761H707.327a12.776,12.776,0,0,1,12.761,12.761Z" transform="translate(-68.706 -165.324)"/>
    <path class="cls-1" d="M548.317,644.657a23.123,23.123,0,0,1-17.23-7.426c-9.632-10.028-12.133-28.189-12.662-40.285l-244.469-.01c-.538,12.1-3.053,30.266-12.7,40.3a23.707,23.707,0,0,1-34.463,0c-10.119-10.536-12.3-30.521-12.7-41.375-11.321-2.372-34.05-9.621-56.919-31.418-17.943-17.1-32.2-39.716-42.371-67.211-11.793-31.879-18.1-70.58-18.772-115.09H93.674A25,25,0,0,1,68.706,357.17v-12.7a25,25,0,0,1,24.968-24.967H707.326a25,25,0,0,1,24.968,24.967v12.7a25,25,0,0,1-24.968,24.967h-6.179c-.014,40.913-6.258,77.332-18.575,108.307C671.941,517.184,656.8,540,637.564,558.258c-23.654,22.453-47.651,32.38-59.231,36.175-.277,11.01-2.268,31.862-12.783,42.8A23.133,23.133,0,0,1,548.317,644.657Zm-282.19-55.721,260.133.01.053,3.946c.112,8.482,1.366,29.242,10.544,38.8a15.707,15.707,0,0,0,22.926,0c9.807-10.2,10.585-33.355,10.59-40.21l0-2.983,2.86-.849c9.513-2.822,34.289-11.9,58.822-35.19,18.387-17.454,32.882-39.312,43.082-64.967,12.335-31.021,18.388-67.8,17.99-109.312l-.038-4.039h14.235a16.986,16.986,0,0,0,16.968-16.967v-12.7a16.986,16.986,0,0,0-16.968-16.967H93.674a16.986,16.986,0,0,0-16.968,16.967v12.7a16.986,16.986,0,0,0,16.968,16.967h10.285l.029,3.97c.338,45.251,6.5,84.395,18.32,116.345,9.746,26.342,23.335,47.94,40.388,64.2,23.743,22.63,47.049,28.468,55.968,29.928l3.321.544.032,3.365c.063,6.688,1.014,29.277,10.549,39.205a15.708,15.708,0,0,0,22.926,0c2.389-2.485,10.211-12.625,10.579-38.809Zm282.19,47.515a15.194,15.194,0,0,1-11.306-4.9c-9.378-9.753-10.41-31.972-10.5-38.549l-.057-4.057h43.776l-.06,4.058c-.095,6.57-1.135,28.766-10.533,38.541A15.214,15.214,0,0,1,548.317,636.451Zm-13.671-39.5c.585,10.84,2.952,23.674,8.132,29.061a7.506,7.506,0,0,0,11.09-.007c5.193-5.4,7.57-18.227,8.16-29.054Zm-290.619,39.5a15.194,15.194,0,0,1-11.306-4.9c-9.378-9.755-10.41-31.972-10.5-38.549l-.057-4.057h43.776L265.879,593c-.1,6.57-1.136,28.766-10.534,38.541A15.211,15.211,0,0,1,244.027,636.451Zm-13.671-39.5c.585,10.84,2.952,23.673,8.133,29.061A7.5,7.5,0,0,0,249.577,626c5.194-5.4,7.571-18.227,8.161-29.054Zm337.874-8.206-346.967-.021c-3.058-.308-30.675-3.773-58.425-30.224-17.031-16.231-30.6-37.8-40.337-64.116-11.806-31.911-17.971-70.959-18.324-116.059l-.031-4.031H692.907l.037,3.962c.39,41.273-5.622,77.891-17.867,108.833-10.131,25.6-24.533,47.43-42.807,64.881-24.614,23.506-51.577,34.12-63.628,36.687Zm-346.35-8h345.5c10.706-2.395,36.294-12.525,59.367-34.56,17.432-16.648,31.19-37.521,40.893-62.039,11.473-28.99,17.3-63.239,17.324-101.852H112.226c.67,42.461,6.647,79.224,17.779,109.315,9.309,25.159,22.212,45.717,38.354,61.1C193.774,576.932,219.26,580.439,221.881,580.741Zm485.445-206.81H93.674A16.781,16.781,0,0,1,76.912,357.17v-12.7a16.781,16.781,0,0,1,16.762-16.761H707.326a16.781,16.781,0,0,1,16.762,16.761v12.7A16.781,16.781,0,0,1,707.326,373.931ZM93.674,335.713a8.771,8.771,0,0,0-8.762,8.761v12.7a8.771,8.771,0,0,0,8.762,8.761H707.326a8.771,8.771,0,0,0,8.762-8.761v-12.7a8.771,8.771,0,0,0-8.762-8.761Z" transform="translate(-68.706 -165.324)"/>
  </g>
  <path class="cls-1" d="M625.079,333.077a8,8,0,0,1-8-8V204.405c0-.062,0-.124,0-.186s.073-11.371-6.425-17.956c-3.28-3.324-7.783-4.939-13.767-4.939s-10.417,1.61-13.578,4.923c-6.137,6.428-5.9,17.676-5.9,17.787a8,8,0,1,1-15.982.743c-.085-1.833-.521-18.236,10.306-29.578,6.255-6.553,14.718-9.875,25.152-9.875,10.4,0,18.9,3.3,25.268,9.815,10.824,11.079,10.941,27.552,10.922,29.32V325.077A8,8,0,0,1,625.079,333.077Z" transform="translate(-68.706 -165.324)"/>
</svg>
