<svg id="Capa_1" data-name="Capa 1" xmlns="http://www.w3.org/2000/svg" viewBox="0 0 492.148 497.842">
  <defs>
    <style>
      .cls-1 {
        fill: #272559;
      }

      .cls-2 {
        fill: none;
      }
    </style>
  </defs>
  <title>cocina</title>
  <g>
    <path class="cls-1" d="M632.2,644.087H167.8a13.889,13.889,0,0,1-13.873-13.873V449.36A13.889,13.889,0,0,1,167.8,435.487H632.2a13.889,13.889,0,0,1,13.873,13.873V630.214A13.889,13.889,0,0,1,632.2,644.087Zm-462.275-16H630.074v-176.6H169.926Z" transform="translate(-153.926 -146.245)"/>
    <path class="cls-1" d="M495.1,642.717a8,8,0,0,1-8-8V443.487a8,8,0,0,1,16,0V634.717A8,8,0,0,1,495.1,642.717Z" transform="translate(-153.926 -146.245)"/>
    <path class="cls-1" d="M298.5,642.717a8,8,0,0,1-8-8V443.487a8,8,0,0,1,16,0V634.717A8,8,0,0,1,298.5,642.717Z" transform="translate(-153.926 -146.245)"/>
    <path class="cls-1" d="M609.25,449.433a8,8,0,0,1-8-8V398.065c0-.062,0-.124,0-.187,0-.091.094-12.785-7.264-20.248-3.751-3.8-8.871-5.653-15.654-5.653s-11.831,1.845-15.452,5.639c-7.063,7.4-6.687,19.953-6.681,20.077a8,8,0,0,1-15.982.744c-.037-.789-.763-19.453,11.089-31.869,6.708-7.027,15.8-10.591,27.026-10.591,11.192,0,20.329,3.543,27.157,10.531,11.68,11.955,11.781,29.773,11.759,31.613v43.311A8,8,0,0,1,609.25,449.433Z" transform="translate(-153.926 -146.245)"/>
    <path class="cls-1" d="M450.122,489.738a11.894,11.894,0,1,1-10.247-10.247A11.9,11.9,0,0,1,450.122,489.738Z" transform="translate(-153.926 -146.245)"/>
    <path class="cls-1" d="M548.1,489.738a11.894,11.894,0,1,1-10.247-10.247A11.9,11.9,0,0,1,548.1,489.738Z" transform="translate(-153.926 -146.245)"/>
    <path class="cls-1" d="M407.731,489.738a11.894,11.894,0,1,1-10.247-10.247A11.9,11.9,0,0,1,407.731,489.738Z" transform="translate(-153.926 -146.245)"/>
    <path class="cls-1" d="M365.57,489.738a11.894,11.894,0,1,1-10.247-10.247A11.9,11.9,0,0,1,365.57,489.738Z" transform="translate(-153.926 -146.245)"/>
    <path class="cls-1" d="M266.428,489.738a11.894,11.894,0,1,1-10.247-10.247A11.9,11.9,0,0,1,266.428,489.738Z" transform="translate(-153.926 -146.245)"/>
    <path class="cls-1" d="M463.753,448.208H412.9a8,8,0,0,1-8-8V423.3a9.817,9.817,0,0,1,9.806-9.807h47.236a9.818,9.818,0,0,1,9.807,9.807v16.91A8,8,0,0,1,463.753,448.208Zm-42.849-16h34.849v-2.717H420.9Z" transform="translate(-153.926 -146.245)"/>
    <path class="cls-1" d="M379.2,448.208H328.353a8,8,0,0,1-8-8V423.3a9.817,9.817,0,0,1,9.806-9.807H377.4A9.817,9.817,0,0,1,387.2,423.3v16.91A8,8,0,0,1,379.2,448.208Zm-42.849-16H371.2v-2.717H336.353Z" transform="translate(-153.926 -146.245)"/>
    <path class="cls-1" d="M285.638,265.342a8,8,0,0,1-4.62-14.531l73.04-51.672V154.245a8,8,0,0,1,8-8h64.38a8,8,0,0,1,8,8v44.889l72.825,51.416a8,8,0,0,1-4.6,14.535l-217.011.257Zm84.42-103.1v41.033a8,8,0,0,1-3.38,6.531l-55.838,39.5,166.649-.2-55.666-39.3a8,8,0,0,1-3.386-6.535V162.245Z" transform="translate(-153.926 -146.245)"/>
    <path class="cls-1" d="M497.417,327.431H291.229A13.246,13.246,0,0,1,278,314.2V257.085a8,8,0,0,1,8-8H502.648a8,8,0,0,1,8,8V314.2A13.246,13.246,0,0,1,497.417,327.431Zm-203.42-16H494.648V265.085H294Z" transform="translate(-153.926 -146.245)"/>
    <line class="cls-2" x1="144.574" y1="385.954" x2="341.171" y2="385.954"/>
  </g>
</svg>
