<svg id="Capa_1" data-name="Capa 1" xmlns="http://www.w3.org/2000/svg" viewBox="0 0 693.808 383.777">
  <defs>
    <style>
      .cls-1 {
        fill: #272559;
      }
    </style>
  </defs>
  <title>cuarto</title>
  <path class="cls-1" d="M711.007,594.3H86.587a34.734,34.734,0,0,1-34.694-34.694V475.73a34.734,34.734,0,0,1,34.694-34.7H711.007a34.734,34.734,0,0,1,34.694,34.7v83.876A34.733,34.733,0,0,1,711.007,594.3ZM86.587,457.035a18.716,18.716,0,0,0-18.694,18.7v83.876A18.716,18.716,0,0,0,86.587,578.3H711.007A18.715,18.715,0,0,0,729.7,559.606V475.73a18.716,18.716,0,0,0-18.694-18.7Z" transform="translate(-51.893 -251.704)"/>
  <path class="cls-1" d="M95.465,635.48H80.173A14.57,14.57,0,0,1,65.62,620.927V579.721h44.4v41.206A14.57,14.57,0,0,1,95.465,635.48Zm-13.846-16h12.4v-23.76H81.62Z" transform="translate(-51.893 -251.704)"/>
  <path class="cls-1" d="M717.421,635.48H702.129a14.57,14.57,0,0,1-14.554-14.554V579.721h44.4v41.206A14.57,14.57,0,0,1,717.421,635.48Zm-13.846-16h12.4v-23.76h-12.4Z" transform="translate(-51.893 -251.704)"/>
  <path class="cls-1" d="M345.825,452.3H212.264a25.975,25.975,0,0,1-25.945-25.945V391.248A25.975,25.975,0,0,1,212.264,365.3H345.825a25.975,25.975,0,0,1,25.945,25.945v35.108A25.975,25.975,0,0,1,345.825,452.3Zm-133.561-71a9.957,9.957,0,0,0-9.945,9.945v35.108a9.957,9.957,0,0,0,9.945,9.945H345.825a9.957,9.957,0,0,0,9.945-9.945V391.248a9.957,9.957,0,0,0-9.945-9.945Z" transform="translate(-51.893 -251.704)"/>
  <path class="cls-1" d="M586.276,452.3H452.716a25.974,25.974,0,0,1-25.945-25.945V391.248A25.975,25.975,0,0,1,452.716,365.3H586.276a25.975,25.975,0,0,1,25.946,25.945v35.108A25.975,25.975,0,0,1,586.276,452.3Zm-133.561-71a9.957,9.957,0,0,0-9.945,9.945v35.108a9.957,9.957,0,0,0,9.945,9.945H586.276a9.957,9.957,0,0,0,9.946-9.945V391.248a9.957,9.957,0,0,0-9.946-9.945Z" transform="translate(-51.893 -251.704)"/>
  <path class="cls-1" d="M141.528,449.035" transform="translate(-51.893 -251.704)"/>
  <path class="cls-1" d="M138.893,449.035h-16V372.641l.109-.653c.213-1.28,5.646-31.7,42.1-61.665,20.883-17.164,47.833-30.8,80.1-40.529,39.813-12,87.987-18.09,143.184-18.09,55.134,0,104.343,5.87,146.259,17.447,33.843,9.347,63.082,22.427,86.905,38.876,41.39,28.578,52.235,57.546,52.677,58.766l.478,1.32V444.3h-16V371.049c-4.1-9.62-18.5-31.028-47.541-50.744-64.036-43.476-156.492-52.6-222.777-52.6-66.066,0-156.46,9.367-211.912,53.993-25.5,20.522-35.617,42.841-37.579,52.363Z" transform="translate(-51.893 -251.704)"/>
</svg>
