<svg id="Capa_1" data-name="Capa 1" xmlns="http://www.w3.org/2000/svg" viewBox="0 0 419.083 447.494">
  <defs>
    <style>
      .cls-1 {
        fill: #272559;
      }
    </style>
  </defs>
  <title>estudio</title>
  <g>
    <path class="cls-1" d="M595.307,641.657H443.152a8,8,0,0,1,0-16H595.307a8,8,0,0,1,0,16Z" transform="translate(-184.224 -194.163)"/>
    <g>
      <path class="cls-1" d="M518.821,641.362a8,8,0,0,1-7.994-7.819l-6.207-275.41a101.922,101.922,0,0,0-4.259-26.862c-8.827-29.157-27.194-89.829-92.275-102.474a8,8,0,1,1,3.051-15.707c74.549,14.485,95.564,83.9,104.539,113.544a118,118,0,0,1,4.939,31.109l6.208,275.438a8,8,0,0,1-7.817,8.179Z" transform="translate(-184.224 -194.163)"/>
      <path class="cls-1" d="M388.344,432.244a8,8,0,0,1-5.1-1.838L187.122,268.021a8,8,0,0,1-.635-11.738c2.022-2.081,50.163-50.976,103.674-50.976a80.735,80.735,0,0,1,27.817,4.838c9.582-8.311,26.246-15.981,45.271-15.981A63.251,63.251,0,0,1,404.07,208.8c13.028,10.787,20.735,25.8,22.286,43.424,1.459,16.578-2.788,31.64-8.181,40.925,13.988,23.69,14.643,54.145,1.812,88.5a210.134,210.134,0,0,1-25.23,47.383,8,8,0,0,1-6.413,3.218ZM204.316,261.484,386.646,412.452c12.363-19.454,42.878-75.234,15.366-114.9a8,8,0,0,1,.474-9.735c4.116-4.852,9.3-18.669,7.933-34.2-.814-9.25-4.347-22.4-16.551-32.5a46.8,46.8,0,0,0-30.618-10.957c-16.2,0-31.3,7.5-37.284,14.55a8,8,0,0,1-9.367,2.127,64.3,64.3,0,0,0-26.437-5.533C253.686,221.307,218.361,249.018,204.316,261.484Z" transform="translate(-184.224 -194.163)"/>
      <path class="cls-1" d="M291.343,390.835h0a47.718,47.718,0,0,1-30.371-10.924,46.567,46.567,0,0,1-5.88-66.126,8,8,0,0,1,11.2-.986l60.345,49.965a8,8,0,0,1,1,11.338A47.484,47.484,0,0,1,291.343,390.835ZM262.954,330.81a30.591,30.591,0,0,0,8.219,36.777,31.683,31.683,0,0,0,20.168,7.248h0a31.663,31.663,0,0,0,18.028-5.593Z" transform="translate(-184.224 -194.163)"/>
    </g>
  </g>
</svg>
