<svg id="Capa_1" data-name="Capa 1" xmlns="http://www.w3.org/2000/svg" viewBox="0 0 632.383 352.449">
  <defs>
    <style>
      .cls-1 {
        fill: #272559;
      }
    </style>
  </defs>
  <title>gimnasio</title>
  <g>
    <path class="cls-1" d="M514.8,448.349H285.2a8,8,0,0,1-8-8v-59.93a8,8,0,0,1,8-8H514.8a8,8,0,0,1,8,8v59.93A8,8,0,0,1,514.8,448.349Zm-221.6-16H506.8v-43.93H293.2Z" transform="translate(-83.808 -232.775)"/>
    <path class="cls-1" d="M587.451,585.225H537.519a30.754,30.754,0,0,1-30.72-30.719V263.494a30.754,30.754,0,0,1,30.72-30.719h49.933a30.754,30.754,0,0,1,30.72,30.719V554.506A30.754,30.754,0,0,1,587.451,585.225ZM537.519,248.775a14.736,14.736,0,0,0-14.72,14.719V554.506a14.736,14.736,0,0,0,14.72,14.719h49.933a14.736,14.736,0,0,0,14.72-14.719V263.494a14.736,14.736,0,0,0-14.72-14.719Z" transform="translate(-83.808 -232.775)"/>
    <path class="cls-1" d="M646.617,538.422H632.891a30.754,30.754,0,0,1-30.72-30.719V305.882a30.755,30.755,0,0,1,30.72-30.72h13.727a30.755,30.755,0,0,1,30.72,30.72V507.7A30.754,30.754,0,0,1,646.617,538.422Zm-13.727-247.26a14.737,14.737,0,0,0-14.72,14.72V507.7a14.736,14.736,0,0,0,14.72,14.719h13.727a14.736,14.736,0,0,0,14.72-14.719V305.882a14.737,14.737,0,0,0-14.72-14.72Z" transform="translate(-83.808 -232.775)"/>
    <path class="cls-1" d="M700.463,447.466h-23.4a15.746,15.746,0,0,1-15.729-15.729V380.081a15.746,15.746,0,0,1,15.729-15.729h23.4a15.746,15.746,0,0,1,15.729,15.729v51.656A15.746,15.746,0,0,1,700.463,447.466Zm-23.126-16h22.854V380.353H677.337Z" transform="translate(-83.808 -232.775)"/>
    <path class="cls-1" d="M262.481,585.225H212.549a30.754,30.754,0,0,1-30.72-30.719V263.494a30.754,30.754,0,0,1,30.72-30.719h49.932a30.754,30.754,0,0,1,30.72,30.719V554.506A30.754,30.754,0,0,1,262.481,585.225ZM212.549,248.775a14.736,14.736,0,0,0-14.72,14.719V554.506a14.736,14.736,0,0,0,14.72,14.719h49.932a14.736,14.736,0,0,0,14.72-14.719V263.494a14.736,14.736,0,0,0-14.72-14.719Z" transform="translate(-83.808 -232.775)"/>
    <path class="cls-1" d="M167.109,538.422H153.383a30.754,30.754,0,0,1-30.72-30.719V305.882a30.755,30.755,0,0,1,30.72-30.72h13.727a30.755,30.755,0,0,1,30.72,30.72V507.7A30.754,30.754,0,0,1,167.109,538.422Zm-13.727-247.26a14.736,14.736,0,0,0-14.72,14.72V507.7a14.736,14.736,0,0,0,14.72,14.719h13.727a14.736,14.736,0,0,0,14.72-14.719V305.882a14.736,14.736,0,0,0-14.72-14.72Z" transform="translate(-83.808 -232.775)"/>
    <path class="cls-1" d="M122.935,447.466h-23.4a15.746,15.746,0,0,1-15.729-15.729V380.081a15.746,15.746,0,0,1,15.729-15.729h23.4a15.746,15.746,0,0,1,15.729,15.729v51.656A15.746,15.746,0,0,1,122.935,447.466Zm-23.126-16h22.855V380.353H99.808Z" transform="translate(-83.808 -232.775)"/>
  </g>
</svg>
