<svg id="Capa_1" data-name="Capa 1" xmlns="http://www.w3.org/2000/svg" viewBox="0 0 589.989 487.222">
  <defs>
    <style>
      .cls-1 {
        fill: #272559;
      }

      .cls-2 {
        fill: none;
        stroke: #272559;
        stroke-miterlimit: 10;
        stroke-width: 16px;
      }
    </style>
  </defs>
  <title>jacuzzi</title>
  <path class="cls-1" d="M226.271,439.2H146.181a28.518,28.518,0,0,1-28.486-28.485V391.885A28.519,28.519,0,0,1,146.181,363.4h80.091v16H146.181a12.5,12.5,0,0,0-12.486,12.486v18.827A12.5,12.5,0,0,0,146.181,423.2h80.091Z" transform="translate(-101.093 -153.3)"/>
  <path class="cls-2" d="M226.272,431.2" transform="translate(-101.093 -153.3)"/>
  <path class="cls-1" d="M644.053,439.2H359.106v-16H644.053a12.5,12.5,0,0,0,12.485-12.485V391.885A12.5,12.5,0,0,0,644.053,379.4H359.106v-16H644.053a28.518,28.518,0,0,1,28.485,28.486v18.827A28.517,28.517,0,0,1,644.053,439.2Z" transform="translate(-101.093 -153.3)"/>
  <path class="cls-2" d="M359.106,371.4" transform="translate(-101.093 -153.3)"/>
  <path class="cls-2" d="M226.272,371.4" transform="translate(-101.093 -153.3)"/>
  <path class="cls-1" d="M609.059,640.522H180.521a42.387,42.387,0,0,1-42.34-42.34V431.2a8,8,0,0,1,8-8h80.09a8,8,0,0,1,0,16h-72.09V598.183a26.37,26.37,0,0,0,26.34,26.34H609.059a26.37,26.37,0,0,0,26.34-26.34V439.2H361.519a8,8,0,0,1,0-16H643.4a8,8,0,0,1,8,8V598.183A42.387,42.387,0,0,1,609.059,640.522Z" transform="translate(-101.093 -153.3)"/>
  <path class="cls-1" d="M320,325.235a8,8,0,0,1-4.445-14.657,26.249,26.249,0,0,0,11.882-21.705c0-7.773-4.311-12.578-11.344-19.774-6.936-7.1-15.566-15.926-15.566-30.059,0-14.64,9.144-23.935,16.491-31.4,6.46-6.566,10.419-10.873,10.419-16.437,0-14.327-12.354-23.223-12.479-23.308a8,8,0,0,1,9.064-13.186c.793.546,19.415,13.611,19.415,36.493,0,12.4-7.977,20.5-15.014,27.657-6.384,6.489-11.9,12.093-11.9,20.182,0,7.244,4.184,11.892,11.009,18.875,7.084,7.249,15.9,16.27,15.9,30.958a42.334,42.334,0,0,1-19.007,35.018A7.961,7.961,0,0,1,320,325.235Z" transform="translate(-101.093 -153.3)"/>
  <path class="cls-1" d="M391.687,325.235a8,8,0,0,1-4.445-14.657,26.25,26.25,0,0,0,11.881-21.705c0-7.773-4.311-12.578-11.344-19.774-6.936-7.1-15.566-15.926-15.566-30.059,0-14.64,9.144-23.935,16.491-31.4,6.46-6.566,10.419-10.873,10.419-16.437,0-14.336-12.393-23.247-12.518-23.335a8,8,0,0,1,9.1-13.157c.793.545,19.414,13.61,19.414,36.492,0,12.4-7.977,20.5-15.014,27.657-6.384,6.489-11.9,12.093-11.9,20.182,0,7.244,4.184,11.892,11.009,18.875,7.084,7.249,15.9,16.27,15.9,30.958a42.334,42.334,0,0,1-19.006,35.018A7.961,7.961,0,0,1,391.687,325.235Z" transform="translate(-101.093 -153.3)"/>
  <path class="cls-1" d="M460.743,325.235a8,8,0,0,1-4.445-14.657,26.249,26.249,0,0,0,11.881-21.705c0-7.773-4.311-12.578-11.344-19.774C449.9,262,441.27,253.173,441.27,239.04c0-14.64,9.144-23.935,16.49-31.4,6.46-6.566,10.419-10.873,10.419-16.437,0-14.336-12.393-23.247-12.518-23.335a8,8,0,0,1,9.1-13.157c.793.545,19.414,13.61,19.414,36.492,0,12.4-7.976,20.5-15.013,27.657-6.384,6.489-11.9,12.093-11.9,20.182,0,7.244,4.183,11.892,11.008,18.875,7.085,7.249,15.9,16.27,15.9,30.958a42.332,42.332,0,0,1-19.006,35.018A7.961,7.961,0,0,1,460.743,325.235Z" transform="translate(-101.093 -153.3)"/>
  <path class="cls-1" d="M146.181,594.309H109.093a8,8,0,0,1,0-16h37.088a8,8,0,0,1,0,16Z" transform="translate(-101.093 -153.3)"/>
  <path class="cls-1" d="M683.082,594.309H646a8,8,0,0,1,0-16h37.087a8,8,0,0,1,0,16Z" transform="translate(-101.093 -153.3)"/>
  <path class="cls-1" d="M348.492,531.137H236.887a18.637,18.637,0,0,1-18.615-18.616V431.2a8,8,0,0,1,16,0v81.325a2.619,2.619,0,0,0,2.615,2.616H348.492a2.619,2.619,0,0,0,2.615-2.616V431.2a8,8,0,0,1,16,0v81.324A18.637,18.637,0,0,1,348.492,531.137Z" transform="translate(-101.093 -153.3)"/>
  <path class="cls-1" d="M359.107,439.2a8,8,0,0,1-8-8V371.4a8,8,0,0,1,16,0v59.8A8,8,0,0,1,359.107,439.2Z" transform="translate(-101.093 -153.3)"/>
  <path class="cls-1" d="M359.107,379.4a8,8,0,0,1-8-8v-8.725a2.618,2.618,0,0,0-2.615-2.615H236.887a2.618,2.618,0,0,0-2.615,2.615V371.4a8,8,0,0,1-16,0v-8.724a18.636,18.636,0,0,1,18.615-18.615H348.492a18.636,18.636,0,0,1,18.615,18.615V371.4A8,8,0,0,1,359.107,379.4Z" transform="translate(-101.093 -153.3)"/>
  <path class="cls-1" d="M226.271,439.2a8,8,0,0,1-8-8V371.4a8,8,0,0,1,16,0v59.8A8,8,0,0,1,226.271,439.2Z" transform="translate(-101.093 -153.3)"/>
  <path class="cls-1" d="M359.107,465.725H226.271a8,8,0,0,1,0-16H359.107a8,8,0,0,1,0,16Z" transform="translate(-101.093 -153.3)"/>
  <path class="cls-1" d="M359.107,500.443H226.271a8,8,0,0,1,0-16H359.107a8,8,0,0,1,0,16Z" transform="translate(-101.093 -153.3)"/>
</svg>
