<svg id="Capa_1" data-name="Capa 1" xmlns="http://www.w3.org/2000/svg" viewBox="0 0 400.129 427.146">
  <defs>
    <style>
      .cls-1 {
        fill: #272559;
      }
    </style>
  </defs>
  <title>lavado</title>
  <g>
    <path class="cls-1" d="M548.51,639.5H251.49a51.613,51.613,0,0,1-51.555-51.555V263.909a51.613,51.613,0,0,1,51.555-51.555H548.51a51.613,51.613,0,0,1,51.555,51.555V587.945A51.613,51.613,0,0,1,548.51,639.5ZM251.49,228.354a35.6,35.6,0,0,0-35.555,35.555V587.945A35.6,35.6,0,0,0,251.49,623.5H548.51a35.6,35.6,0,0,0,35.555-35.555V263.909a35.6,35.6,0,0,0-35.555-35.555Z" transform="translate(-199.936 -212.354)"/>
    <path class="cls-1" d="M450.677,314.188a28.6,28.6,0,1,1,28.751-28.6A28.706,28.706,0,0,1,450.677,314.188Zm0-41.191a12.6,12.6,0,1,0,12.751,12.6A12.688,12.688,0,0,0,450.677,273Z" transform="translate(-199.936 -212.354)"/>
    <path class="cls-1" d="M527.336,314.188a28.6,28.6,0,1,1,28.751-28.6A28.706,28.706,0,0,1,527.336,314.188Zm0-41.191a12.6,12.6,0,1,0,12.751,12.6A12.688,12.688,0,0,0,527.336,273Z" transform="translate(-199.936 -212.354)"/>
    <path class="cls-1" d="M400.372,583.952c-62.978,0-114.213-50.88-114.213-113.419s51.235-113.419,114.213-113.419,114.214,50.88,114.214,113.419S463.35,583.952,400.372,583.952Zm0-210.838c-54.154,0-98.213,43.7-98.213,97.419s44.059,97.419,98.213,97.419,98.214-43.7,98.214-97.419S454.527,373.114,400.372,373.114Z" transform="translate(-199.936 -212.354)"/>
    <path class="cls-1" d="M451.8,464.475c-18.454,0-26.15-7.582-32.334-13.674-5.07-5-8.421-8.3-18.318-8.3-8.218,0-10.627,2.449-15,6.895-6.165,6.268-14.607,14.852-38.792,14.852-19.911,0-27.156-4.966-33.951-10.966-3.705-3.271-5.941-5.246-15.024-5.246a8,8,0,0,1,0-16c15.136,0,20.946,5.13,25.615,9.253,4.229,3.734,7.882,6.959,23.36,6.959,17.479,0,22.069-4.667,27.385-10.071,5.116-5.2,11.483-11.675,26.406-11.675,16.455,0,23.715,7.151,29.548,12.9,5.346,5.267,9.208,9.071,21.1,9.071,13.578,0,18.432-3.562,24.052-7.687,5.824-4.275,12.425-9.12,25.92-9.12a8,8,0,0,1,0,16c-8.253,0-11.515,2.395-16.452,6.019C478.774,458.492,470.624,464.475,451.8,464.475Z" transform="translate(-199.936 -212.354)"/>
  </g>
</svg>
