<svg id="Layer_1" data-name="Layer 1" xmlns="http://www.w3.org/2000/svg" viewBox="0 0 214.507 54.065">
  <defs>
    <style>
      .cls-1 {
        fill: #fff;
      }
    </style>
  </defs>
  <title>Logo</title>
  <g>
    <path class="cls-1" d="M9.4,43.248V26.239l-2.756-.91v-3.6l7.625-1.047h.115l1.343,1v1.319l-.115,3.6h.115a7.98,7.98,0,0,1,1.444-2.436,10.77,10.77,0,0,1,2.88-2.47,7.273,7.273,0,0,1,3.826-1.058,4.709,4.709,0,0,1,1.034.105,2.536,2.536,0,0,1,.741.268v7.959a5.567,5.567,0,0,0-1.628-.954,5.984,5.984,0,0,0-2.015-.3,10.818,10.818,0,0,0-3.1.42,5.788,5.788,0,0,0-2.139,1.05V43.226l5.372.456v2.885H6.391V43.66Z" transform="translate(-6.391 -4.75)"/>
    <path class="cls-1" d="M29.758,26.724a10.91,10.91,0,0,1,4.452-4.514,13.621,13.621,0,0,1,6.646-1.57q4.8,0,7.364,2.241A8.407,8.407,0,0,1,50.9,29.31a21.478,21.478,0,0,1-.342,4.419H35.847q.275,4.189,2.061,6.214a6.017,6.017,0,0,0,4.746,2.027,11.674,11.674,0,0,0,3.563-.593,12.731,12.731,0,0,0,3.017-1.342l1.321,2.822A9.839,9.839,0,0,1,48.2,44.565a17.068,17.068,0,0,1-3.574,1.444,14.511,14.511,0,0,1-4.04.581,13.783,13.783,0,0,1-7.011-1.614,9.751,9.751,0,0,1-4.088-4.5A16.273,16.273,0,0,1,28.176,33.7,14.537,14.537,0,0,1,29.758,26.724ZM43.633,30.61l.023-1.637a7.29,7.29,0,0,0-.818-3.779,2.994,2.994,0,0,0-2.779-1.345,4.116,4.116,0,0,0-2.208.565A3.874,3.874,0,0,0,36.4,26.469a13.484,13.484,0,0,0-.614,4.14Z" transform="translate(-6.391 -4.75)"/>
    <path class="cls-1" d="M65.716,37.188a18.547,18.547,0,0,1-3.735-.319,5.416,5.416,0,0,0-.433,1.161,4.592,4.592,0,0,0-.158,1.07,2.088,2.088,0,0,0,.5,1.514,2.859,2.859,0,0,0,1.561.706,17.549,17.549,0,0,0,2.969.193h4.645q4.87,0,7.284,1.753a6.275,6.275,0,0,1,2.414,5.442A7.685,7.685,0,0,1,78.7,53.989a13.5,13.5,0,0,1-5.417,3.563,19.954,19.954,0,0,1-7.091,1.263H66.17q-6.372,0-9.31-1.969a6.061,6.061,0,0,1-2.937-5.27,6.259,6.259,0,0,1,1.229-3.688,7.27,7.27,0,0,1,3.074-2.526,4.166,4.166,0,0,1-2.185-3.847,5.172,5.172,0,0,1,1-3.006,7.037,7.037,0,0,1,2.71-2.277,7.479,7.479,0,0,1-3.8-2.849,8.039,8.039,0,0,1-1.229-4.5,6.608,6.608,0,0,1,1.57-4.38,9.911,9.911,0,0,1,4.234-2.87,16.579,16.579,0,0,1,5.849-1H66.4q5.853,0,8.538,2.277a6.446,6.446,0,0,1,2.059-1.558,6.379,6.379,0,0,1,2.994-.719H81.4v5.555H76.961a8.426,8.426,0,0,1,.342,2.445,7.431,7.431,0,0,1-1.355,4.484,8.851,8.851,0,0,1-4,3,16.436,16.436,0,0,1-6.215,1.066ZM61.139,49.846q0,5.463,5.828,5.463h.044a7.691,7.691,0,0,0,2.925-.57,5.346,5.346,0,0,0,2.277-1.707,4.417,4.417,0,0,0,.878-2.778,4.728,4.728,0,0,0-.422-2.185,2.437,2.437,0,0,0-1.424-1.15,8.635,8.635,0,0,0-2.776-.353H64.28a20.639,20.639,0,0,1-2.481-.159A8.073,8.073,0,0,0,61.139,49.846Zm4.984-26.18A3.573,3.573,0,0,0,63.141,24.9a5.966,5.966,0,0,0-.977,3.734,7.083,7.083,0,0,0,.956,4.005,3.5,3.5,0,0,0,3.118,1.4h.023a3.153,3.153,0,0,0,2.868-1.342,7.1,7.1,0,0,0,.864-3.838,6.777,6.777,0,0,0-.91-3.953,3.391,3.391,0,0,0-2.937-1.248Z" transform="translate(-6.391 -4.75)"/>
    <path class="cls-1" d="M86.567,43.062V25.578l-3.072-.933V21.163l8.969-1.138h.112l1.412,1V43.085l2.914.432v3.05H83.518v-3.05Zm-.6-32.622a3.936,3.936,0,0,1,1.5-1.628,4.454,4.454,0,0,1,2.357-.6h.023a4.433,4.433,0,0,1,2.219.524,3.67,3.67,0,0,1,1.412,1.388,3.828,3.828,0,0,1,.488,1.912,4.447,4.447,0,0,1-1.183,3.2,4.472,4.472,0,0,1-3.393,1.24h-.023a4.047,4.047,0,0,1-2.024-.5,3.669,3.669,0,0,1-1.389-1.355,3.717,3.717,0,0,1-.5-1.924A4.966,4.966,0,0,1,85.964,10.44Z" transform="translate(-6.391 -4.75)"/>
    <path class="cls-1" d="M119.312,22.175a10.226,10.226,0,0,1,4.26,4.424,14.975,14.975,0,0,1,1.467,6.853,13.982,13.982,0,0,1-1.774,7.3,11.11,11.11,0,0,1-4.737,4.4,14.732,14.732,0,0,1-6.534,1.439,13.619,13.619,0,0,1-6.658-1.536,10.231,10.231,0,0,1-4.256-4.424,14.942,14.942,0,0,1-1.467-6.853,13.675,13.675,0,0,1,1.786-7.191,11.526,11.526,0,0,1,4.758-4.456,14.264,14.264,0,0,1,6.5-1.493A13.594,13.594,0,0,1,119.312,22.175ZM115.9,26.419a3.858,3.858,0,0,0-7.139-.248q-1.155,2.278-1.16,7.067a19.145,19.145,0,0,0,1.151,7.552,3.817,3.817,0,0,0,3.654,2.545,3.671,3.671,0,0,0,3.471-2.266q1.128-2.266,1.128-7.079A19.86,19.86,0,0,0,115.9,26.419Zm.4-21.669h.023l4.416,3.983a14.651,14.651,0,0,1-2.6,3,35.943,35.943,0,0,1-3.893,3.176,15.493,15.493,0,0,1-3.3,1.9H110.9l-2.756-2.277Z" transform="translate(-6.391 -4.75)"/>
    <path class="cls-1" d="M131.481,43.216V26.235l-2.8-.883V21.595l8.221-1.047h.11l1.252,1v1.662l-.041,1.048a13.877,13.877,0,0,1,4.131-2.562,13.1,13.1,0,0,1,5.131-1.058,8.531,8.531,0,0,1,4.452,1,5.59,5.59,0,0,1,2.343,3.186,19.806,19.806,0,0,1,.715,5.946V43.171l2.733.4v3H145.072V43.612l2.389-.418V30.818a15.563,15.563,0,0,0-.293-3.439,3.046,3.046,0,0,0-1.073-1.813,3.66,3.66,0,0,0-2.228-.579,6.374,6.374,0,0,0-2.632.59,9.436,9.436,0,0,0-2.242,1.385V43.194l2.641.418v2.955H128.84V43.612Z" transform="translate(-6.391 -4.75)"/>
    <path class="cls-1" d="M178.934,31.156q3.742-8.4,7.112-16.391h1.664l5.892,3.188L181.7,39.326l-2.1,3.1h10.358L190.438,34l5.92-.478v7.945h5.305v5.1h-5.305v7.466h-6.419V46.567H174.573l-1.729-2.709Q175.19,39.557,178.934,31.156Z" transform="translate(-6.391 -4.75)"/>
  </g>
  <path class="cls-1" d="M218.047,43.893a5.854,5.854,0,0,1,2.082,7.925,5.771,5.771,0,0,1-2.084,2.115,5.74,5.74,0,0,1-5.786,0,5.832,5.832,0,0,1,0-10.04,5.787,5.787,0,0,1,5.788,0Zm-.363,9.462a5.031,5.031,0,0,0,1.809-1.883,5.336,5.336,0,0,0,0-5.136,5.034,5.034,0,0,0-1.809-1.879,4.933,4.933,0,0,0-5.066,0,5.03,5.03,0,0,0-1.807,1.879,5.324,5.324,0,0,0,0,5.136,5.026,5.026,0,0,0,1.807,1.883,4.933,4.933,0,0,0,5.066,0ZM213.2,51.446V46.472l-.641-.165v-.571h2.712a3.134,3.134,0,0,1,1.781.426,1.361,1.361,0,0,1,.621,1.188,2.02,2.02,0,0,1-.406,1.284,1.842,1.842,0,0,1-1.078.671,1.505,1.505,0,0,1,.451.327,1.832,1.832,0,0,1,.287.4c.07.134.148.306.232.512a4.43,4.43,0,0,0,.237.511,1.01,1.01,0,0,0,.289.316.8.8,0,0,0,.483.132V52.1h-.879a.779.779,0,0,1-.5-.153,1,1,0,0,1-.294-.377,4.823,4.823,0,0,1-.222-.629,6.3,6.3,0,0,0-.217-.638,1.864,1.864,0,0,0-.3-.48,1.234,1.234,0,0,0-.5-.344h-1.174v2l.732.129v.5h-2.263v-.5Zm2.777-2.813a1.308,1.308,0,0,0,.481-.463,1.219,1.219,0,0,0,.177-.647,1.034,1.034,0,0,0-.382-.9,2.032,2.032,0,0,0-1.168-.272h-.509a1.561,1.561,0,0,0-.488.089v2.32a9.154,9.154,0,0,0,1.221.045A1.342,1.342,0,0,0,215.977,48.633Z" transform="translate(-6.391 -4.75)"/>
</svg>
