<svg id="Capa_1" data-name="Capa 1" xmlns="http://www.w3.org/2000/svg" viewBox="0 0 310.977 471.594">
  <defs>
    <style>
      .cls-1 {
        fill: #272559;
      }
    </style>
  </defs>
  <title>medio-bano</title>
  <g>
    <path class="cls-1" d="M445.014,645.943H349.4a2.85,2.85,0,0,1-2.084-.9,2.777,2.777,0,0,1-.74-2.126c.088-1.058,8.507-102.195,9.122-123.209-19.087-6.2-36.136-17.4-50.7-33.305-11.993-13.1-22.33-29.406-30.723-48.461a245.092,245.092,0,0,1-18.059-62.221,2.776,2.776,0,0,1,.691-2.2,2.848,2.848,0,0,1,2.122-.944H531.457a2.817,2.817,0,0,1,2.834,2.8c0,24.633-5.2,47.386-15.443,67.627a145.435,145.435,0,0,1-33.965,43.443,163.05,163.05,0,0,1-47.35,29.232l10.306,127.239a2.778,2.778,0,0,1-.742,2.122A2.851,2.851,0,0,1,445.014,645.943Zm-92.534-5.6h89.464L431.712,514.012a2.8,2.8,0,0,1,1.918-2.875c.237-.079,24.119-8.227,47.645-29.01a139.778,139.778,0,0,0,32.565-41.746c9.422-18.659,14.382-39.573,14.759-62.2H262.319a249.7,249.7,0,0,0,17.217,57.659c8.149,18.469,18.15,34.238,29.725,46.867,14.374,15.683,31.246,26.547,50.145,32.291a2.8,2.8,0,0,1,2,2.675C361.407,531.865,353.985,622.186,352.481,640.344Z" transform="translate(-240.512 -178.35)"/>
    <path class="cls-1" d="M445.015,649.943H349.405a6.871,6.871,0,0,1-5.011-2.176,6.791,6.791,0,0,1-1.8-5.184c.337-4.058,7.847-94.516,9-120.05-18.589-6.58-35.242-17.816-49.539-33.433-12.288-13.424-22.863-30.095-31.433-49.55a249.038,249.038,0,0,1-18.368-63.344,6.774,6.774,0,0,1,1.683-5.355,6.853,6.853,0,0,1,5.1-2.273H531.457a6.824,6.824,0,0,1,6.834,6.8c0,25.267-5.341,48.628-15.874,69.435a149.415,149.415,0,0,1-34.889,44.638A170.976,170.976,0,0,1,441.76,518.3l10.067,124.3a6.8,6.8,0,0,1-1.81,5.178A6.871,6.871,0,0,1,445.015,649.943Zm-88.19-13.6h80.783l-9.883-122.01a6.791,6.791,0,0,1,4.638-6.992,153.2,153.2,0,0,0,46.265-28.215,135.8,135.8,0,0,0,31.643-40.55c8.576-16.985,13.351-35.939,14.211-56.4H267.089A246.042,246.042,0,0,0,283.2,434.222c7.973,18.07,17.734,33.472,29.015,45.778,13.882,15.147,30.152,25.633,48.359,31.167a6.767,6.767,0,0,1,4.838,6.5C365.407,531.144,358.886,611.339,356.824,636.345Z" transform="translate(-240.512 -178.35)"/>
  </g>
  <g>
    <path class="cls-1" d="M535.549,319.191h-43.9V185.184a2.834,2.834,0,0,0-2.834-2.834H305.4a2.834,2.834,0,0,0-2.834,2.834V319.191H256.451a11.953,11.953,0,0,0-11.939,11.939v14.534A11.953,11.953,0,0,0,256.451,357.6h279.1a11.953,11.953,0,0,0,11.939-11.939V331.13A11.953,11.953,0,0,0,535.549,319.191ZM308.234,188.018H485.98v37.406H308.234Zm0,43.075H485.98v87.023l-177.746-.049ZM541.82,345.663a6.277,6.277,0,0,1-6.271,6.27h-279.1a6.277,6.277,0,0,1-6.271-6.27V331.13a6.277,6.277,0,0,1,6.271-6.27h279.1a6.277,6.277,0,0,1,6.271,6.27Z" transform="translate(-240.512 -178.35)"/>
    <path class="cls-1" d="M535.549,361.6h-279.1a15.957,15.957,0,0,1-15.939-15.939V331.13a15.957,15.957,0,0,1,15.939-15.939h42.114V185.184a6.842,6.842,0,0,1,6.834-6.834H488.814a6.842,6.842,0,0,1,6.834,6.834V315.191h39.9a15.957,15.957,0,0,1,15.939,15.939v14.534A15.957,15.957,0,0,1,535.549,361.6Zm-279.1-32.743a2.273,2.273,0,0,0-2.271,2.271v14.534a2.273,2.273,0,0,0,2.271,2.27h279.1a2.273,2.273,0,0,0,2.271-2.27V331.13a2.273,2.273,0,0,0-2.271-2.271Zm55.783-14.792,169.745.047V235.093H312.234Zm0-92.644H481.979V192.019H312.234Z" transform="translate(-240.512 -178.35)"/>
  </g>
</svg>
