<svg id="Capa_1" data-name="Capa 1" xmlns="http://www.w3.org/2000/svg" viewBox="0 0 602.314 410.167">
  <defs>
    <style>
      .cls-1 {
        fill: #272559;
      }
    </style>
  </defs>
  <title>parking</title>
  <path class="cls-1" d="M621.333,638.083c-6.729,0-13.288-.173-19.5-.514-21.688-1.19-36.48-16.769-37.272-38.982-86.965.1-175.319.1-260.779.1l-68.253,0c-.994,21-15.493,37.467-34.126,38.521-7.566.428-15.3.636-23.635.636-8.062,0-16.5-.2-25.79-.6-15.264-.665-29.81-13.555-32.424-28.733-1.483-8.616-1.56-17.3-1.634-25.7-.018-2.038-.035-4.074-.074-6.1-.089-4.743-.3-6.205-1.606-7.45a29.143,29.143,0,0,1-6.883-10.422c-2.6-6.729-5.008-13.6-7.34-20.239q-1.351-3.85-2.713-7.694a8,8,0,0,1-.464-2.684V433.945a7.974,7.974,0,0,1,.245-1.964c.184-.726.38-1.449.576-2.173.366-1.348.712-2.62.931-3.792a138.609,138.609,0,0,1,18.194-47c6.193-10.227,14.217-18.31,21.977-26.127,1.523-1.535,3.047-3.069,4.557-4.621,1.688-1.735,3.382-3.463,5.109-5.219-10.153-4.894-17.812-11.36-23.3-19.645-4.889-7.382-6.509-15.62-4.564-23.2,1.911-7.446,7.144-13.741,14.734-17.727a68.772,68.772,0,0,1,32.32-7.662,92,92,0,0,1,11.593.764,25.42,25.42,0,0,1,21.039,16.2l4.912-4.81c10.687-10.459,21.737-21.276,32.326-32.135C256.7,237.187,276.521,228.191,298.4,228.1c28.614-.122,59.938-.182,95.763-.182q47.357,0,94.709.089l12.722.018a74.1,74.1,0,0,1,48.459,17.546c9.243,7.831,17.855,16.493,26.185,24.87,3.382,3.4,6.88,6.92,10.344,10.3,3.7,3.612,7.379,7.244,11.177,11a25.426,25.426,0,0,1,21.029-16.167,92.087,92.087,0,0,1,11.567-.76,68.964,68.964,0,0,1,32.341,7.651c7.595,3.978,12.829,10.289,14.738,17.773,1.941,7.608.31,15.844-4.6,23.192A56.025,56.025,0,0,1,650,342.874c3.168,3.6,6.245,7,9.524,10.083a130.891,130.891,0,0,1,37.99,64.623c.833,3.341,1.613,6.719,2.369,9.986q.526,2.275,1.058,4.549a8.031,8.031,0,0,1,.212,1.831v94.281a7.994,7.994,0,0,1-.881,3.648l-.053.1a83.038,83.038,0,0,1-17.853,39.393c-.03.238-.062.6-.075,1.1-.093,3.521-.1,7.161-.1,10.68-.006,6.36-.013,12.937-.525,19.518-1.44,18.493-16.61,33.727-34.536,34.68C637.871,637.844,629.431,638.083,621.333,638.083Zm-55.14-55.5c6.549,0,14.3,2.468,14.337,14.223.042,14.76,8.335,24.025,22.183,24.785,5.919.325,12.184.49,18.62.49,7.812,0,15.973-.232,24.951-.71,9.9-.527,18.619-9.475,19.436-19.945.465-5.969.471-11.954.477-18.291,0-3.618.008-7.36.105-11.085.075-2.858.494-7.032,3.245-10.286a66.5,66.5,0,0,0,15.075-33.514,9.427,9.427,0,0,1,.535-1.948V434.87q-.432-1.85-.858-3.7c-.74-3.2-1.506-6.512-2.306-9.719a113.6,113.6,0,0,0-33.428-56.839c-4.493-4.227-8.564-8.872-12.5-13.363-1.762-2.011-3.585-4.09-5.418-6.1a8,8,0,0,1,3.017-12.849l.668-.263c.752-.3,1.692-.67,2.642-1.015,10.406-3.774,17.576-9.01,22.561-16.475,2.387-3.574,3.217-7.153,2.4-10.351-.784-3.072-3.086-5.684-6.657-7.555-9.94-5.2-21.125-6.893-34.466-5.193-1.962.25-7.928,1.009-9.317,10.464-.187,1.27-.357,2.54-.568,4.116l-.384,2.845a8,8,0,0,1-13.546,4.613c-2.482-2.45-4.879-4.821-7.218-7.135-4.951-4.9-9.648-9.545-14.373-14.162-3.548-3.465-7.088-7.025-10.511-10.469-8.092-8.139-16.459-16.554-25.18-23.943a57.524,57.524,0,0,0-38.139-13.754l-12.723-.018q-47.345-.067-94.687-.089c-35.8,0-67.1.06-95.694.182-17.677.075-33.221,7.241-47.521,21.908-10.719,10.993-21.837,21.876-32.59,32.4q-6.655,6.513-13.291,13.042a12.657,12.657,0,0,1-2.682,1.961c-.219.128-.481.28-.8.481a8,8,0,0,1-12.212-5.66l-.314-2.3c-.2-1.43-.372-2.73-.561-4.028-1.376-9.441-7.348-10.2-9.31-10.454-13.351-1.7-24.524-.017-34.45,5.194-3.584,1.881-5.892,4.488-6.674,7.538-.817,3.183.015,6.774,2.406,10.385,4.707,7.107,11.644,12.252,21.83,16.192.745.288,1.564.56,2.7.937.657.218,1.388.46,2.229.748a8,8,0,0,1,3.12,13.181l-4.521,4.589c-3.13,3.174-6.1,6.181-9.043,9.209-1.546,1.589-3.107,3.162-4.668,4.735-7.426,7.481-14.44,14.547-19.646,23.143a122.876,122.876,0,0,0-16.152,41.657c-.337,1.8-.785,3.453-1.218,5.047q-.132.483-.262.968v91.876q1.144,3.226,2.274,6.458c2.291,6.527,4.66,13.277,7.169,19.776a13.207,13.207,0,0,0,2.993,4.6c6.327,6.027,6.466,13.37,6.566,18.731.04,2.083.059,4.172.077,6.264.071,8.117.139,15.784,1.4,23.122,1.336,7.756,9.607,15.126,17.354,15.464,9.056.395,17.265.586,25.093.586,8.033,0,15.469-.2,22.732-.61,10.566-.6,18.766-10.949,19.073-24.08.015-.621.022-1.182.03-1.689.059-4.152.182-12.794,11.729-12.794.376,0,.788,0,1.239.008.491,0,1.035.01,1.637.01l69.572,0C389.79,582.689,478.725,582.689,566.193,582.585Zm-356.77-17.206c-10.764,0-19.634-.256-27.916-.807-18.192-1.208-32.564-10.389-40.47-25.85-7.679-15.02.2-28.658,2.785-33.14,2.294-3.972,7.059-5.772,10.763-5.794,10.178-.064,20.147-.1,29.628-.1,9.4,0,18.674.032,27.569.095a14.411,14.411,0,0,1,10.351,4.9c11.487,13.386,23.054,27.072,34.238,40.309l4.2,4.971a8.921,8.921,0,0,1,1.98,4.515c.013.079.026.178.055.3a8,8,0,0,1-7.04,9.754c-.378.036-.749.081-1.115.125a29.854,29.854,0,0,1-3.634.274c-6.636.012-13.42.117-19.979.22C223.828,565.266,216.578,565.379,209.424,565.379Zm-52.937-49.6c-3.2,6.306-3.544,11.082-1.2,15.662,6.717,13.138,18.545,16.588,27.284,17.168,7.921.526,16.455.771,26.855.771,7.03,0,14.216-.112,21.166-.22,2.719-.043,5.475-.086,8.248-.122-9.307-11.009-18.819-22.239-28.271-33.258-8.519-.058-17.38-.087-26.354-.087C175.327,515.692,166.008,515.721,156.486,515.777Zm455.557,49.429q-.782,0-1.574-.023c-7.354-.218-15.368-.319-25.227-.319-5.579,0-11.159.031-16.739.063-5.61.03-11.22.062-16.829.062h-6.238a8,8,0,0,1-7.839-6.4l-.279-1.363a8,8,0,0,1,1.733-6.786l8.549-10.088q9.357-11.042,18.721-22.079,1.329-1.564,2.645-3.144c2.8-3.347,5.7-6.807,8.845-10.1,2.356-2.468,6.514-5.122,11.115-5.172,9.441-.1,18.743-.15,27.646-.15,9.6,0,19.1.059,28.229.176a15.33,15.33,0,0,1,12.215,7.319c9.956,17.679,4.887,36.884-12.616,47.786C633.2,561.958,622.922,565.206,612.043,565.206Zm-26.8-16.343c10.02,0,18.186.1,25.7.327.368.011.736.016,1.1.016,7.757,0,15.35-2.479,23.9-7.8,10.065-6.271,12.8-15.542,7.576-25.54-8.728-.107-17.785-.161-26.944-.161-8.659,0-17.7.048-26.883.144a1.918,1.918,0,0,0-.308.229c-2.782,2.914-5.389,6.026-8.148,9.322q-1.354,1.616-2.714,3.226-8.629,10.163-17.246,20.339,3.571-.016,7.143-.037C574.023,548.895,579.634,548.863,585.242,548.863Zm-184.528,16.2c-30.173,0-60.435-.06-89.943-.179A41.762,41.762,0,0,1,268.729,522.5a8,8,0,0,1,8-7.968H523.372a8,8,0,0,1,8,8.141c-.423,23.98-18.587,42.131-42.251,42.219C459.446,565,429.7,565.059,400.714,565.059Zm-114.83-34.524a25.886,25.886,0,0,0,24.951,18.346c29.487.119,59.728.179,89.879.179,28.969,0,58.692-.056,88.347-.165,12.161-.045,21.745-7.4,25.062-18.359Zm99.984-24.148q-35.691,0-71.389-.038l-10.882-.009c-11.95-.01-22.152-5.341-30.321-15.846-10.525-13.539-15.564-29.759-15.405-49.589a8,8,0,0,1,8-7.936H534.2a8,8,0,0,1,8,8.12c-.262,17.392-3.241,42.445-26,59.152-5.015,3.684-12.38,5.9-19.7,5.935C464.25,506.319,429.1,506.386,385.868,506.386ZM274.145,448.969c1.013,12.566,4.826,22.779,11.763,31.7,5.124,6.59,10.75,9.661,17.7,9.667l10.882.009q35.687.029,71.376.038c43.2,0,78.335-.066,110.561-.21,3.881-.018,8.021-1.155,10.3-2.831,11.474-8.424,17.5-20.442,19.067-38.376ZM620.652,475.4c-.9,0-1.993-.09-3.261-.193-.434-.035-1.072-.087-1.524-.116a7.941,7.941,0,0,1-1.87-.011l-4.237-.518q-18.942-2.316-37.884-4.64a15.152,15.152,0,0,1-2.866-.656c-8.152-2.664-13.3-6.983-15.3-12.841s-.59-12.427,4.212-19.522c8.564-12.659,20.617-21.033,30.16-26.915,9.327-5.748,19.188-10.545,28.726-15.185q2.588-1.26,5.172-2.523a34.748,34.748,0,0,1,15.428-3.6c19.11,0,36.364,15.632,39.28,35.586,3.342,22.864-11.032,44.873-31.389,48.06-1.875.294-3.525.564-5.042.812a149.181,149.181,0,0,1-18.01,2.138A10.1,10.1,0,0,1,620.652,475.4Zm-5.217-16.332c.9,0,1.991.089,3.257.192.438.035,1.081.088,1.535.117.148-.017.3-.029.45-.037a134.552,134.552,0,0,0,16.993-1.991c1.548-.253,3.232-.528,5.147-.828,11.67-1.827,20.1-15.817,18.032-29.938-1.795-12.281-12.094-21.9-23.448-21.9a18.879,18.879,0,0,0-8.381,1.963q-2.606,1.277-5.22,2.546c-9.185,4.468-18.682,9.088-27.33,14.418-8.179,5.041-18.447,12.127-25.3,22.26-2.6,3.849-2.331,5.359-2.327,5.372s.715,1.371,5.128,2.813l.025.008q18.854,2.316,37.707,4.618l3.254.4C615.114,459.07,615.273,459.067,615.436,459.067Zm-418.33,14.5c-2.063,0-4.129-.029-6.194-.059-2.029-.029-4.066-.017-6.087-.058l-24.234-.365h-.1c-16.416,0-32.9-14.623-36.743-32.6a44.528,44.528,0,0,1,8.271-36.45,37.9,37.9,0,0,1,29.07-14.916c.32-.009.64-.014.962-.014,8.763,0,17.314,3.33,25.25,6.928,18,8.159,33.579,18.6,46.313,31.025a69.528,69.528,0,0,1,10.6,13.38c3.78,6.155,3.45,11.434,2.507,14.777-.964,3.42-3.524,8.214-10.245,11.63-10.479,5.324-21.608,5.958-31.428,6.519C202.665,473.506,200.143,473.568,197.105,473.568Zm-12.1-16.115c2.043,0,4.088.029,6.134.059,1.989.028,3.979.057,5.966.057,2.726,0,4.96-.055,7.029-.173,9.052-.516,17.6-1,25.089-4.808,1.545-.785,2.036-1.5,2.095-1.709a3.456,3.456,0,0,0-.74-2.06,54.252,54.252,0,0,0-8.142-10.3c-11.4-11.126-25.445-20.515-41.745-27.9-6.174-2.8-13.283-5.659-19.144-5.493a22.165,22.165,0,0,0-16.947,8.8,28.355,28.355,0,0,0-5.209,23.223c2.271,10.623,12.13,19.942,21.1,19.942.061,0,.211,0,.27,0Zm414.2-101.64H201.1a8,8,0,0,1-6.222-13.029c.421-.521.778-.984,1.1-1.4a28.768,28.768,0,0,1,2.489-2.938q8.375-8.375,16.728-16.772c15.15-15.209,30.815-30.937,46.463-46.19a54.8,54.8,0,0,1,39.523-15.975h.053q21.412.018,42.821.056,30.725.048,61.451.063c34.034,0,61.869-.091,87.6-.287l.656,0c19.78,0,36.116,6.923,49.94,21.164,12.849,13.236,26.182,26.471,39.075,39.271q8.893,8.827,17.763,17.678c.977.976,1.856,1.956,2.875,3.089.5.558,1.054,1.173,1.692,1.871a8,8,0,0,1-5.9,13.4Zm-379.5-16H580.249q-4.37-4.345-8.745-8.687c-12.945-12.851-26.331-26.14-39.283-39.481-10.8-11.126-23.021-16.309-38.46-16.309l-.535,0c-25.771.2-53.645.288-87.72.288q-30.74,0-61.476-.063-21.4-.034-42.811-.056l-.039-8v8a39.3,39.3,0,0,0-28.355,11.432c-15.562,15.171-31.186,30.856-46.295,46.024Q223.119,336.389,219.706,339.813Z" transform="translate(-98.843 -227.917)"/>
</svg>
