<svg id="Capa_1" data-name="Capa 1" xmlns="http://www.w3.org/2000/svg" viewBox="0 0 363.111 432.213">
  <defs>
    <style>
      .cls-1 {
        fill: #272559;
      }
    </style>
  </defs>
  <title>seguridad</title>
  <path class="cls-1" d="M403.114,639.648a7.993,7.993,0,0,1-2.554-.419c-95.119-32.037-134.55-67.63-167.338-114.673-24.874-35.69-10.872-105.784-.648-156.965,3.369-16.866,6.279-31.433,7.253-41.818,3.631-38.742-19.085-64.346-19.315-64.6a8,8,0,0,1,.45-11.192c.226-.213,22.747-21.419,35.849-34.521a8,8,0,0,1,10.457-.743c19.388,14.541,39.87,21.913,60.877,21.913,40.161,0,69.214-26.764,69.5-27.034a8,8,0,0,1,11.218.277c.248.255,26.565,26.757,64.434,26.757,20.05,0,40.047-7.372,59.435-21.913a8,8,0,0,1,10.457.743c13.1,13.1,35.623,34.309,35.849,34.521a8,8,0,0,1,.45,11.192c-.213.238-22.919,26.152-19.315,64.6.974,10.386,3.884,24.952,7.253,41.818,10.224,51.181,24.226,121.274-.648,156.965-16.783,24.079-32.736,43.849-56.044,62.065-26.415,20.646-59.8,37.362-105.065,52.607A7.993,7.993,0,0,1,403.114,639.648ZM237.187,256.66a107.047,107.047,0,0,1,18.57,70.606c-1.051,11.213-4.036,26.156-7.492,43.459-9.66,48.358-22.891,114.588-1.915,144.683C276.983,559.361,314.006,592.8,403.113,623.2c91.637-31.312,121.343-65.906,150.537-107.793,20.976-30.095,7.745-96.324-1.915-144.683-3.456-17.3-6.441-32.246-7.492-43.458a107.049,107.049,0,0,1,18.57-70.607c-6.339-6.009-17.243-16.4-26.114-25.109-20.5,13.994-41.8,21.079-63.4,21.079-34.2,0-59.7-17.672-70.413-26.616-11.423,8.787-39,26.616-74.74,26.616-22.481,0-44.264-7.088-64.84-21.083C254.433,240.261,243.527,250.65,237.187,256.66Z" transform="translate(-218.444 -207.435)"/>
  <path class="cls-1" d="M453.98,509.219,398.157,478.03l-57.339,28.3,12.412-62.729-44.639-45.787,63.494-7.58,29.752-56.6,26.829,58.045,63.025,10.8L444.78,445.939ZM398.618,459.96l34.864,19.479-5.745-39.521,29.3-27.139-39.363-6.749-16.757-36.252L382.334,405.13l-39.654,4.734,27.879,28.6-7.752,39.178Z" transform="translate(-218.444 -207.435)"/>
</svg>
