<svg id="Capa_1" data-name="Capa 1" xmlns="http://www.w3.org/2000/svg" viewBox="0 0 608.081 496.223">
  <defs>
    <style>
      .cls-1 {
        fill: #272559;
      }

      .cls-2 {
        fill: none;
        stroke: #272559;
        stroke-linecap: round;
        stroke-linejoin: round;
        stroke-width: 16px;
      }
    </style>
  </defs>
  <title>terraza</title>
  <path class="cls-1" d="M687.489,648.337H676.446a16.274,16.274,0,0,1-16.255-16.256V168.37a16.274,16.274,0,0,1,16.255-16.256h11.043a16.274,16.274,0,0,1,16.256,16.256V632.081A16.274,16.274,0,0,1,687.489,648.337ZM676.446,168.114a.255.255,0,0,0-.255.256V632.081a.255.255,0,0,0,.255.256h11.043a.256.256,0,0,0,.256-.256V168.37a.256.256,0,0,0-.256-.256Z" transform="translate(-95.664 -152.114)"/>
  <path class="cls-1" d="M122.963,648.337H111.919a16.274,16.274,0,0,1-16.255-16.256V168.37a16.274,16.274,0,0,1,16.255-16.256h11.044a16.274,16.274,0,0,1,16.255,16.256V632.081A16.274,16.274,0,0,1,122.963,648.337ZM111.919,168.114a.255.255,0,0,0-.255.256V632.081a.255.255,0,0,0,.255.256h11.044a.255.255,0,0,0,.255-.256V168.37a.255.255,0,0,0-.255-.256Z" transform="translate(-95.664 -152.114)"/>
  <rect class="cls-1" x="35.261" y="29.956" width="538.279" height="16"/>
  <path class="cls-1" d="M237.378,358.228a8,8,0,0,1-8-8V174.266a8,8,0,0,1,16,0V350.228A8,8,0,0,1,237.378,358.228Z" transform="translate(-95.664 -152.114)"/>
  <path class="cls-1" d="M562.071,358.228a8,8,0,0,1-8-8V174.266a8,8,0,0,1,16,0V350.228A8,8,0,0,1,562.071,358.228Z" transform="translate(-95.664 -152.114)"/>
  <path class="cls-1" d="M642.867,575.624H156.57a9.443,9.443,0,0,1-9.432-9.432V512.551a9.443,9.443,0,0,1,9.432-9.433h486.3a9.443,9.443,0,0,1,9.433,9.433v53.642A9.443,9.443,0,0,1,642.867,575.624Zm-479.729-16H636.3V519.118H163.139Z" transform="translate(-95.664 -152.114)"/>
  <path class="cls-2" d="M288.641,511.283" transform="translate(-95.664 -152.114)"/>
  <path class="cls-1" d="M644.85,519.285a8,8,0,0,1-7.723-5.931L596.554,361.983a5.076,5.076,0,0,0-4.9-3.756H538.8a5.058,5.058,0,0,0-4.994,4.2L515.143,470.261a21.068,21.068,0,0,1-41.637-.759l-15.193-111.87a5.086,5.086,0,0,0-5.022-4.386H346.609a5.087,5.087,0,0,0-5.023,4.386L326.395,469.5a21.069,21.069,0,0,1-41.638.76l-18.662-107.83a5.06,5.06,0,0,0-5-4.2H208.241a5.076,5.076,0,0,0-4.9,3.756L162.772,513.354a8,8,0,1,1-15.455-4.143l40.573-151.371a21.1,21.1,0,0,1,20.351-15.613H261.1A21.029,21.029,0,0,1,281.86,359.7l18.662,107.83a5.069,5.069,0,0,0,10.018-.183l15.192-111.87a21.144,21.144,0,0,1,20.877-18.233H453.29a21.144,21.144,0,0,1,20.877,18.233L489.36,467.35a5.068,5.068,0,0,0,10.017.183L518.04,359.7a21.025,21.025,0,0,1,20.76-17.476h52.858a21.1,21.1,0,0,1,20.351,15.613l40.573,151.371a8.006,8.006,0,0,1-7.732,10.073Z" transform="translate(-95.664 -152.114)"/>
  <path class="cls-1" d="M288.708,519.285a8,8,0,0,1-7.419-5c-.493-1.171-13.09-29.87-56.509-29.87-43.544,0-56.822,28.686-57.367,29.906a8,8,0,0,1-14.683-6.356c.693-1.615,17.591-39.55,72.05-39.55,54.576,0,70.682,38.239,71.341,39.866a8,8,0,0,1-7.413,11Z" transform="translate(-95.664 -152.114)"/>
  <path class="cls-1" d="M632.405,519.285a8,8,0,0,1-7.419-5c-.493-1.171-13.09-29.87-56.509-29.87-44.028,0-57.216,29.559-57.344,29.856a8,8,0,0,1-14.705-6.307c.693-1.615,17.591-39.55,72.049-39.55,54.576,0,70.682,38.239,71.341,39.866a8,8,0,0,1-7.413,11Z" transform="translate(-95.664 -152.114)"/>
  <path class="cls-1" d="M483.806,519.285a8,8,0,0,1-7.074-4.254c-.66-1.187-17.678-30.616-76.69-30.616-59.164,0-77.1,29.432-77.832,30.685a8,8,0,1,1-13.912-7.9c.89-1.583,22.593-38.783,91.744-38.783,69.281,0,89.979,37.522,90.825,39.12a8,8,0,0,1-7.061,11.75Z" transform="translate(-95.664 -152.114)"/>
</svg>
