<svg id="Capa_1" data-name="Capa 1" xmlns="http://www.w3.org/2000/svg" viewBox="0 0 464.023 720">
  <defs>
    <style>
      .cls-1 {
        fill: #d8ab2e;
        fill-rule: evenodd;
      }
    </style>
  </defs>
  <title>u-1</title>
  <g>
    <path class="cls-1" d="M632.012,266.541C632.012,391.8,399.989,760,399.989,760s-232-368.2-232-493.459S272.552,40,399.989,40,632.012,141.279,632.012,266.541ZM399.989,96.621C500.2,96.621,580.8,175.054,580.8,273.107c0,96.929-80.6,176.442-180.814,176.442s-180.8-79.512-180.8-176.442c0-98.053,80.587-176.486,180.8-176.486Z" transform="translate(-167.988 -40)"/>
    <polygon class="cls-1" points="235.745 100 272.588 174.652 354.972 186.623 295.358 244.732 309.431 326.782 235.745 288.043 162.059 326.782 176.132 244.732 116.518 186.623 198.902 174.652 235.745 100"/>
  </g>
</svg>
