<svg id="Capa_1" data-name="Capa 1" xmlns="http://www.w3.org/2000/svg" viewBox="0 0 464.023 720">
  <defs>
    <style>
      .cls-1, .cls-2 {
        fill: #31a9e0;
      }

      .cls-1 {
        fill-rule: evenodd;
      }
    </style>
  </defs>
  <title>u-10</title>
  <path class="cls-1" d="M628.278,266.541C628.278,391.8,396.256,760,396.256,760s-232-368.2-232-493.459S268.818,40,396.256,40,628.278,141.279,628.278,266.541ZM396.256,96.621c100.211,0,180.814,78.433,180.814,176.486,0,96.929-80.6,176.442-180.814,176.442s-180.8-79.512-180.8-176.442c0-98.053,80.587-176.486,180.8-176.486Z" transform="translate(-164.255 -40)"/>
  <path class="cls-2" d="M367.152,371.934a132.206,132.206,0,0,0,22.678-17.7,155.175,155.175,0,0,0,19.061-22.451,162.986,162.986,0,0,0,14.689-25.615,151.538,151.538,0,0,0,9.494-27.272,121.883,121.883,0,0,0,3.541-27.5q.146-8.737-.152-18.081A146.122,146.122,0,0,0,434.73,215a105.749,105.749,0,0,0-4.143-17.026,49.733,49.733,0,0,0-7.309-14.164,33.468,33.468,0,0,0-11.375-9.643,34.425,34.425,0,0,0-16.123-3.541,31.114,31.114,0,0,0-14.615,3.541,34.556,34.556,0,0,0-11.828,10.4,52.459,52.459,0,0,0-7.911,16.951,84.626,84.626,0,0,0-2.862,23.053,71.618,71.618,0,0,0,2.485,19.211,53.272,53.272,0,0,0,7.007,15.67,35.112,35.112,0,0,0,11,10.623,27.388,27.388,0,0,0,14.465,3.917,47.822,47.822,0,0,0,13.711-1.883,39.3,39.3,0,0,0,10.246-4.445l6.781,13.259a37.178,37.178,0,0,1-6.48,6.931,47.586,47.586,0,0,1-9.869,6.328,63.388,63.388,0,0,1-13.41,4.671,72.722,72.722,0,0,1-16.8,1.808q-14.918,0-26.143-5.424A55.431,55.431,0,0,1,332.8,280.775a60.989,60.989,0,0,1-11.3-21.02,83.12,83.12,0,0,1-3.767-25.087,88.944,88.944,0,0,1,5.65-31.491,79.92,79.92,0,0,1,16.348-26.594A78.744,78.744,0,0,1,365.872,158.2q15.442-6.855,35.183-6.856,18.683,0,33.375,7.006a72.392,72.392,0,0,1,24.711,18.985,84.671,84.671,0,0,1,15.293,27.724,104.406,104.406,0,0,1,5.273,33.375,152.2,152.2,0,0,1-5.2,39.778,176.4,176.4,0,0,1-35.635,68.256,185.441,185.441,0,0,1-26.67,25.916,159.854,159.854,0,0,1-30.061,18.834,124.7,124.7,0,0,1-31.416,10.4l-9.19-18.232A104.33,104.33,0,0,0,367.152,371.934Z" transform="translate(-164.255 -40)"/>
</svg>
