<svg id="Capa_1" data-name="Capa 1" xmlns="http://www.w3.org/2000/svg" viewBox="0 0 464.023 720">
  <defs>
    <style>
      .cls-1, .cls-2 {
        fill: #31a9e0;
      }

      .cls-1 {
        fill-rule: evenodd;
      }
    </style>
  </defs>
  <title>u-11</title>
  <path class="cls-1" d="M628.278,266.541C628.278,391.8,396.256,760,396.256,760s-232-368.2-232-493.459S268.818,40,396.256,40,628.278,141.279,628.278,266.541ZM396.256,96.621c100.211,0,180.814,78.433,180.814,176.486,0,96.929-80.6,176.442-180.814,176.442s-180.8-79.512-180.8-176.442c0-98.053,80.587-176.486,180.8-176.486Z" transform="translate(-164.255 -40)"/>
  <g>
    <path class="cls-2" d="M275.452,317.171l32.332-4.13V217.934q-3.186.592-7.2,1.18t-8.319,1.239q-4.309.65-8.673,1.3t-8.26,1.239l-3.422-15.93q3.775-1.062,8.968-3.009t11.033-4.308q5.841-2.358,11.8-5.015t10.974-5.074q5.014-2.417,8.791-4.425a33.617,33.617,0,0,0,5.192-3.186l12.272,2.006-.472,129.209,29.618,4.012v14.16H275.452Z" transform="translate(-164.255 -40)"/>
    <path class="cls-2" d="M390.147,256.756a78.289,78.289,0,0,1,6.195-30.68,72.12,72.12,0,0,1,15.576-22.951,67.516,67.516,0,0,1,22.006-14.4,69.345,69.345,0,0,1,25.607-5.133q17.815-.116,30.207,5.605a53.4,53.4,0,0,1,20.178,15.753,63.831,63.831,0,0,1,11.27,23.658,114.387,114.387,0,0,1,3.363,29.205,88.555,88.555,0,0,1-5.723,31.093,75.6,75.6,0,0,1-14.811,24.19,67.106,67.106,0,0,1-21.594,15.693,61.78,61.78,0,0,1-25.959,5.605q-17.464,0-30.09-6.432a58.678,58.678,0,0,1-20.709-17.228A73.094,73.094,0,0,1,393.746,285.9,103.832,103.832,0,0,1,390.147,256.756Zm68.085,62.067q8.5.237,14.219-3.54a26.307,26.307,0,0,0,9.205-11.328,65.663,65.663,0,0,0,4.955-18.82,202.885,202.885,0,0,0,1.475-26.02A133.128,133.128,0,0,0,486.08,235.1a70.148,70.148,0,0,0-6.018-18.88,34.545,34.545,0,0,0-9.912-12.39,23.6,23.6,0,0,0-13.807-4.661q-8.493-.116-14.219,3.6a26.134,26.134,0,0,0-9.2,10.975,60.515,60.515,0,0,0-4.955,17.7,169.047,169.047,0,0,0-1.477,23.541,132.716,132.716,0,0,0,.885,15.222,113.351,113.351,0,0,0,2.656,14.691,86.043,86.043,0,0,0,4.424,13.157,48.875,48.875,0,0,0,6.2,10.679,30.369,30.369,0,0,0,7.906,7.257A18.754,18.754,0,0,0,458.232,318.823Z" transform="translate(-164.255 -40)"/>
  </g>
</svg>
