<svg id="Capa_1" data-name="Capa 1" xmlns="http://www.w3.org/2000/svg" viewBox="0 0 464.023 720">
  <defs>
    <style>
      .cls-1, .cls-2 {
        fill: #31a9e0;
      }

      .cls-1 {
        fill-rule: evenodd;
      }
    </style>
  </defs>
  <title>u-2</title>
  <path class="cls-1" d="M628.278,266.541C628.278,391.8,396.256,760,396.256,760s-232-368.2-232-493.459S268.818,40,396.256,40,628.278,141.279,628.278,266.541ZM396.256,96.621c100.211,0,180.814,78.433,180.814,176.486,0,96.929-80.6,176.442-180.814,176.442s-180.8-79.512-180.8-176.442c0-98.053,80.587-176.486,180.8-176.486Z" transform="translate(-164.255 -40)"/>
  <path class="cls-2" d="M344.25,332.21l41.285-5.273V205.492q-4.068.756-9.191,1.507t-10.623,1.582q-5.5.83-11.075,1.658T344.1,211.821l-4.37-20.341q4.821-1.356,11.451-3.842t14.088-5.5q7.458-3.012,15.067-6.4t14.013-6.479q6.4-3.086,11.224-5.65a42.936,42.936,0,0,0,6.631-4.068l15.67,2.562-.6,164.99,37.82,5.123v18.081H344.25Z" transform="translate(-164.255 -40)"/>
</svg>
