<svg id="Capa_1" data-name="Capa 1" xmlns="http://www.w3.org/2000/svg" viewBox="0 0 464.023 720">
  <defs>
    <style>
      .cls-1, .cls-2 {
        fill: #31a9e0;
      }

      .cls-1 {
        fill-rule: evenodd;
      }
    </style>
  </defs>
  <title>u-3</title>
  <path class="cls-1" d="M628.278,266.541C628.278,391.8,396.256,760,396.256,760s-232-368.2-232-493.459S268.818,40,396.256,40,628.278,141.279,628.278,266.541ZM396.256,96.621c100.211,0,180.814,78.433,180.814,176.486,0,96.929-80.6,176.442-180.814,176.442s-180.8-79.512-180.8-176.442c0-98.053,80.587-176.486,180.8-176.486Z" transform="translate(-164.255 -40)"/>
  <path class="cls-2" d="M322.4,334.019q12.353-7.533,24.334-16.122t22.827-17.855a270.14,270.14,0,0,0,20.114-18.985,160.049,160.049,0,0,0,15.973-19.437A99.209,99.209,0,0,0,416.2,242.333a49.4,49.4,0,0,0,3.842-18.458,45.381,45.381,0,0,0-1.959-13.033,34.735,34.735,0,0,0-6.252-11.9,32.147,32.147,0,0,0-11-8.664,36.273,36.273,0,0,0-16.2-3.314,61.242,61.242,0,0,0-16.272,2.109,78.4,78.4,0,0,0-14.314,5.424,96.371,96.371,0,0,0-12.129,7.157q-5.5,3.842-9.568,7.157l-10.4-15.972a59.945,59.945,0,0,1,10.321-10.246A92.994,92.994,0,0,1,349.3,171.816a120.053,120.053,0,0,1,22.451-8.438,100.7,100.7,0,0,1,26.593-3.39q16.274,0,28.705,4.445a63.187,63.187,0,0,1,20.793,11.828,48.911,48.911,0,0,1,12.58,16.875,47.759,47.759,0,0,1,4.221,19.588,71.716,71.716,0,0,1-6.555,30.06,115.011,115.011,0,0,1-18.986,28.4,226.028,226.028,0,0,1-30.209,27.875q-17.783,13.864-40.382,28.176l82.269-8.89,14.164-19.286,17.93,5.575-10.1,45.655H328.58Z" transform="translate(-164.255 -40)"/>
</svg>
