<svg id="Capa_1" data-name="Capa 1" xmlns="http://www.w3.org/2000/svg" viewBox="0 0 464.023 720">
  <defs>
    <style>
      .cls-1, .cls-2 {
        fill: #31a9e0;
      }

      .cls-1 {
        fill-rule: evenodd;
      }
    </style>
  </defs>
  <title>u-4</title>
  <path class="cls-1" d="M628.278,266.541C628.278,391.8,396.256,760,396.256,760s-232-368.2-232-493.459S268.818,40,396.256,40,628.278,141.279,628.278,266.541ZM396.256,96.621c100.211,0,180.814,78.433,180.814,176.486,0,96.929-80.6,176.442-180.814,176.442s-180.8-79.512-180.8-176.442c0-98.053,80.587-176.486,180.8-176.486Z" transform="translate(-164.255 -40)"/>
  <path class="cls-2" d="M335.134,375.3a98.716,98.716,0,0,0,34.73,1.582,78.142,78.142,0,0,0,28.931-9.643,58.276,58.276,0,0,0,19.812-18.759,46.519,46.519,0,0,0,7.383-25.766,66.837,66.837,0,0,0-1.582-14.314,34.037,34.037,0,0,0-6.178-13.335,36.054,36.054,0,0,0-13.107-10.321q-8.516-4.217-22.375-5.123L354.421,285.8v-24.56a113.171,113.171,0,0,0,12.506-2.712,99.06,99.06,0,0,0,13.109-4.6,84.391,84.391,0,0,0,12.431-6.63,54.018,54.018,0,0,0,10.471-8.739,40.886,40.886,0,0,0,7.232-10.849,31.413,31.413,0,0,0,2.713-13.184,31.877,31.877,0,0,0-2.412-13.787,25.132,25.132,0,0,0-6.855-9.191,27.119,27.119,0,0,0-9.642-5.123,38.333,38.333,0,0,0-10.924-1.582,72.226,72.226,0,0,0-28.4,5.349,71.4,71.4,0,0,0-10.17,5.123q-4.521,2.79-8.287,5.5l-10.7-16.574a66.2,66.2,0,0,1,8.588-7.157,83.206,83.206,0,0,1,14.691-8.287,119.6,119.6,0,0,1,20.266-6.855,104.414,104.414,0,0,1,25.314-2.863A89.774,89.774,0,0,1,416.2,161.8a58,58,0,0,1,19.438,8.739,45.911,45.911,0,0,1,13.861,15.52q5.273,9.492,5.273,23.2a42.263,42.263,0,0,1-4.143,17.855,71.391,71.391,0,0,1-10.924,16.8A80.916,80.916,0,0,1,424.258,257.7a66.942,66.942,0,0,1-17.7,8.815,79.335,79.335,0,0,1,25.99,3.691,56.2,56.2,0,0,1,19.588,10.924,47.74,47.74,0,0,1,12.355,16.876,52.322,52.322,0,0,1,4.295,21.245,65,65,0,0,1-4.295,23.128,74.807,74.807,0,0,1-12.43,21.246,92.429,92.429,0,0,1-19.891,17.779,106.308,106.308,0,0,1-26.518,12.732A131.583,131.583,0,0,1,373.1,400.09a156.928,156.928,0,0,1-37.82-2.486q0-5.728-.075-11.15T335.134,375.3Z" transform="translate(-164.255 -40)"/>
</svg>
