<svg id="Capa_1" data-name="Capa 1" xmlns="http://www.w3.org/2000/svg" viewBox="0 0 464.023 720">
  <defs>
    <style>
      .cls-1, .cls-2 {
        fill: #31a9e0;
      }

      .cls-1 {
        fill-rule: evenodd;
      }
    </style>
  </defs>
  <title>u-5</title>
  <path class="cls-1" d="M628.278,266.541C628.278,391.8,396.256,760,396.256,760s-232-368.2-232-493.459S268.818,40,396.256,40,628.278,141.279,628.278,266.541ZM396.256,96.621c100.211,0,180.814,78.433,180.814,176.486,0,96.929-80.6,176.442-180.814,176.442s-180.8-79.512-180.8-176.442c0-98.053,80.587-176.486,180.8-176.486Z" transform="translate(-164.255 -40)"/>
  <path class="cls-2" d="M314.567,333.114q11-18.833,23.354-40.08t24.937-43.621q12.579-22.375,24.56-45.429t22.074-45.654h12.656l27.273,18.985L360.373,314.582l-10.7,14.164,72.022-6.178,1.658-62.681,35.105-6.027v65.694l29.232-2.562v33.3H458.461v56.654H419.738l1.355-56.654H320.745Z" transform="translate(-164.255 -40)"/>
</svg>
