<svg id="Capa_1" data-name="Capa 1" xmlns="http://www.w3.org/2000/svg" viewBox="0 0 464.023 720">
  <defs>
    <style>
      .cls-1, .cls-2 {
        fill: #31a9e0;
      }

      .cls-1 {
        fill-rule: evenodd;
      }
    </style>
  </defs>
  <title>u-6</title>
  <path class="cls-1" d="M628.278,266.541C628.278,391.8,396.256,760,396.256,760s-232-368.2-232-493.459S268.818,40,396.256,40,628.278,141.279,628.278,266.541ZM396.256,96.621c100.211,0,180.814,78.433,180.814,176.486,0,96.929-80.6,176.442-180.814,176.442s-180.8-79.512-180.8-176.442c0-98.053,80.587-176.486,180.8-176.486Z" transform="translate(-164.255 -40)"/>
  <path class="cls-2" d="M356.153,381.632a96.283,96.283,0,0,0,20.944-4.671,83.212,83.212,0,0,0,18.607-9.116,65.711,65.711,0,0,0,14.918-13.41,60.084,60.084,0,0,0,13.561-38.95q0-14.765-4.973-25.163a36.381,36.381,0,0,0-14.541-16.047q-9.568-5.651-23.58-6.178T349,272.543l-13.41-5.424,10.4-103.213h91.46l4.219-4.37h18.383L449.8,197.205H375.214l-10.4,53.49a107,107,0,0,1,27.874-6.1,85.866,85.866,0,0,1,24.938,1.582,68.731,68.731,0,0,1,20.943,8.287,60.766,60.766,0,0,1,26.443,33.148,71.03,71.03,0,0,1,3.617,22.9,73.057,73.057,0,0,1-4.445,25.464,83.769,83.769,0,0,1-12.43,22.375,99.786,99.786,0,0,1-18.986,18.608,122.844,122.844,0,0,1-24.033,14.088,141.512,141.512,0,0,1-27.648,8.965,139.957,139.957,0,0,1-29.683,3.163q-3.768,0-8.437-.451a46.562,46.562,0,0,1-8.739-1.657l.15-19.287A105.315,105.315,0,0,0,356.153,381.632Z" transform="translate(-164.255 -40)"/>
</svg>
