<svg id="Capa_1" data-name="Capa 1" xmlns="http://www.w3.org/2000/svg" viewBox="0 0 464.023 720">
  <defs>
    <style>
      .cls-1, .cls-2 {
        fill: #31a9e0;
      }

      .cls-1 {
        fill-rule: evenodd;
      }
    </style>
  </defs>
  <title>u-7</title>
  <path class="cls-1" d="M628.278,266.541C628.278,391.8,396.256,760,396.256,760s-232-368.2-232-493.459S268.818,40,396.256,40,628.278,141.279,628.278,266.541ZM396.256,96.621c100.211,0,180.814,78.433,180.814,176.486,0,96.929-80.6,176.442-180.814,176.442s-180.8-79.512-180.8-176.442c0-98.053,80.587-176.486,180.8-176.486Z" transform="translate(-164.255 -40)"/>
  <path class="cls-2" d="M311.689,299.516a127.153,127.153,0,0,1,5.575-37.97,145.612,145.612,0,0,1,15.218-33.525,155.268,155.268,0,0,1,22.676-28.553,182.548,182.548,0,0,1,58.914-39.326,156.442,156.442,0,0,1,31.869-9.493l9.342,18.232a142.878,142.878,0,0,0-25.992,10.472,153.122,153.122,0,0,0-23.656,15.218,150.289,150.289,0,0,0-20.34,19.211,135.409,135.409,0,0,0-15.973,22.3,114.657,114.657,0,0,0-10.472,24.56,95.241,95.241,0,0,0-3.918,25.916q-.152,8.741.226,18.081a147.482,147.482,0,0,0,1.884,18.383,99.976,99.976,0,0,0,4.37,17.1,50.2,50.2,0,0,0,7.609,14.164,34.93,34.93,0,0,0,11.525,9.643,34.4,34.4,0,0,0,16.123,3.541,31.556,31.556,0,0,0,14.692-3.541,34.306,34.306,0,0,0,11.9-10.4,52.475,52.475,0,0,0,7.91-16.951,84.639,84.639,0,0,0,2.863-23.053,71.608,71.608,0,0,0-2.486-19.211,52.1,52.1,0,0,0-7.082-15.67A35.966,35.966,0,0,0,413.4,268.025a27.417,27.417,0,0,0-14.465-3.918,45.963,45.963,0,0,0-14.088,1.808,42.293,42.293,0,0,0-9.719,4.521l-6.931-13.259a28,28,0,0,1,6.1-6.329,56.153,56.153,0,0,1,10.4-6.479,70.433,70.433,0,0,1,13.787-4.972,65.749,65.749,0,0,1,16.274-1.959q14.915,0,26.141,5.424a55.473,55.473,0,0,1,18.76,14.465,61.191,61.191,0,0,1,11.3,20.944,82.459,82.459,0,0,1,3.768,25.012,88.968,88.968,0,0,1-5.65,31.491A78.444,78.444,0,0,1,426.5,379.826q-15.521,6.929-35.108,6.931-18.686,0-33.45-7.006a75.7,75.7,0,0,1-25.087-18.91,82.648,82.648,0,0,1-15.746-27.8A103.088,103.088,0,0,1,311.689,299.516Z" transform="translate(-164.255 -40)"/>
</svg>
