<svg id="Capa_1" data-name="Capa 1" xmlns="http://www.w3.org/2000/svg" viewBox="0 0 464.023 720">
  <defs>
    <style>
      .cls-1, .cls-2 {
        fill: #31a9e0;
      }

      .cls-1 {
        fill-rule: evenodd;
      }
    </style>
  </defs>
  <title>u-8</title>
  <path class="cls-1" d="M628.278,266.541C628.278,391.8,396.256,760,396.256,760s-232-368.2-232-493.459S268.818,40,396.256,40,628.278,141.279,628.278,266.541ZM396.256,96.621c100.211,0,180.814,78.433,180.814,176.486,0,96.929-80.6,176.442-180.814,176.442s-180.8-79.512-180.8-176.442c0-98.053,80.587-176.486,180.8-176.486Z" transform="translate(-164.255 -40)"/>
  <path class="cls-2" d="M376.947,337.71q11.6-23.879,23.129-48.743t22.978-50.853q11.446-25.992,23.2-53.415l-82.871,3.616-12.506,31.34L326.47,218.6,332.8,161.5H473.378l7.232,7.986L395.63,399.563l-42.34-14.917Q365.343,361.593,376.947,337.71Z" transform="translate(-164.255 -40)"/>
</svg>
