<svg id="Capa_1" data-name="Capa 1" xmlns="http://www.w3.org/2000/svg" viewBox="0 0 464.023 720">
  <defs>
    <style>
      .cls-1, .cls-2 {
        fill: #31a9e0;
      }

      .cls-1 {
        fill-rule: evenodd;
      }
    </style>
  </defs>
  <title>u-9</title>
  <path class="cls-1" d="M628.278,266.541C628.278,391.8,396.256,760,396.256,760s-232-368.2-232-493.459S268.818,40,396.256,40,628.278,141.279,628.278,266.541ZM396.256,96.621c100.211,0,180.814,78.433,180.814,176.486,0,96.929-80.6,176.442-180.814,176.442s-180.8-79.512-180.8-176.442c0-98.053,80.587-176.486,180.8-176.486Z" transform="translate(-164.255 -40)"/>
  <path class="cls-2" d="M320.971,327.089a54.533,54.533,0,0,1,2.862-17.026,61.5,61.5,0,0,1,8.891-17.026,79.322,79.322,0,0,1,15.067-15.444,88.611,88.611,0,0,1,21.547-12.28q-7.685-5.572-14.541-11.677a80.241,80.241,0,0,1-11.979-13.259,62.308,62.308,0,0,1-8.061-15.369A53.088,53.088,0,0,1,331.819,207q0-15.065,6.253-26.142a56.954,56.954,0,0,1,16.349-18.382,70.894,70.894,0,0,1,22.9-10.849,96.9,96.9,0,0,1,25.916-3.541,94.757,94.757,0,0,1,25.842,3.466A66.909,66.909,0,0,1,450.628,161.8a49.96,49.96,0,0,1,14.689,16.876,48.254,48.254,0,0,1,5.426,23.2,46.6,46.6,0,0,1-3.467,17.1,74.069,74.069,0,0,1-9.266,16.725,82.148,82.148,0,0,1-13.186,14.164,59.468,59.468,0,0,1-15.217,9.568q9.943,6.48,19.211,13.26a118.817,118.817,0,0,1,16.424,14.389,70.762,70.762,0,0,1,11.525,16.123,39.509,39.509,0,0,1,4.371,18.307,65.031,65.031,0,0,1-3.164,20.944,57.78,57.78,0,0,1-8.74,16.649,59.518,59.518,0,0,1-13.184,12.657,75.664,75.664,0,0,1-16.424,8.739,97.485,97.485,0,0,1-18.383,5.048,111.586,111.586,0,0,1-19.061,1.657,130.514,130.514,0,0,1-29.23-3.315,84.522,84.522,0,0,1-26.067-10.547,57.931,57.931,0,0,1-18.759-18.684Q320.969,343.214,320.971,327.089Zm38.422-10.1a59.207,59.207,0,0,0,3.391,20.341,49.393,49.393,0,0,0,9.492,16.2,43.008,43.008,0,0,0,14.616,10.7,45.062,45.062,0,0,0,18.76,3.842,42.326,42.326,0,0,0,13.033-2.109,34.477,34.477,0,0,0,11.752-6.479,33.807,33.807,0,0,0,8.514-11.075,35.535,35.535,0,0,0,3.314-15.9,29.147,29.147,0,0,0-4.822-16.273,65.384,65.384,0,0,0-12.656-14.013,153.364,153.364,0,0,0-17.855-12.883q-10.022-6.25-20.416-12.732a74.777,74.777,0,0,0-10.321,7.609,60.591,60.591,0,0,0-8.664,9.342,43.48,43.48,0,0,0-5.951,10.924A35.564,35.564,0,0,0,359.393,316.994Zm53.188-68.407a39.319,39.319,0,0,0,9.568-7.308,48.038,48.038,0,0,0,11.979-21.095,52.1,52.1,0,0,0,1.809-12.431,47.408,47.408,0,0,0-2.562-16.8,39.862,39.862,0,0,0-7.457-13.033,33.855,33.855,0,0,0-11.15-8.438,31.648,31.648,0,0,0-13.637-3.014,37.048,37.048,0,0,0-11.9,2.034,33.9,33.9,0,0,0-10.925,6.1,31.345,31.345,0,0,0-7.91,9.944,29.293,29.293,0,0,0-3.014,13.561,28.355,28.355,0,0,0,3.691,14.013,58.264,58.264,0,0,0,9.87,12.808,109.746,109.746,0,0,0,14.389,11.979Q403.541,242.712,412.581,248.587Z" transform="translate(-164.255 -40)"/>
</svg>
